<svg width="512" height="512" viewBox="0 0 512 512" fill="none" xmlns="http://www.w3.org/2000/svg">
<rect width="512" height="512" fill="white"/>
<path d="M282.25 60.4259C282.25 58.8864 283.917 57.9239 285.25 58.6935L346 93.7677C347.333 94.5375 347.333 96.4617 346 97.2316L285.25 132.306C283.917 133.076 282.25 132.114 282.25 130.574V120H81C78.7909 120 77.0001 118.209 77 116V76.0002C77 73.791 78.7909 72.0002 81 72.0002H282.25V60.4259Z" fill="#E8ACAC"/>
<path d="M282.25 60.4259L278.25 60.4259V60.4259H282.25ZM285.25 58.6935L287.25 55.2294L287.25 55.2292L285.25 58.6935ZM346 93.7677L344 97.2318V97.2318L346 93.7677ZM346 97.2316L348 100.696L348 100.696L346 97.2316ZM285.25 132.306L287.25 135.77H287.25L285.25 132.306ZM282.25 130.574H278.25V130.575L282.25 130.574ZM282.25 120H286.25C286.25 117.791 284.459 116 282.25 116V120ZM77 116H73V116L77 116ZM282.25 72.0002V76.0002C284.459 76.0002 286.25 74.2093 286.25 72.0002H282.25ZM278.25 61.5283C278.25 63.7374 280.041 65.5283 282.25 65.5283C284.459 65.5283 286.25 63.7374 286.25 61.5283H282.25H278.25ZM286.25 62.0794C286.25 59.8703 284.459 58.0794 282.25 58.0794C280.041 58.0794 278.25 59.8703 278.25 62.0794H282.25H286.25ZM278.25 66.4886C278.25 68.6978 280.041 70.4886 282.25 70.4886C284.459 70.4886 286.25 68.6978 286.25 66.4886H282.25H278.25ZM286.25 70.8979C286.25 68.6887 284.459 66.8979 282.25 66.8979C280.041 66.8979 278.25 68.6887 278.25 70.8979H282.25H286.25ZM263.083 68.0002C260.874 68.0002 259.083 69.791 259.083 72.0002C259.083 74.2093 260.874 76.0002 263.083 76.0002V72.0002V68.0002ZM253.5 76.0002C255.709 76.0002 257.5 74.2093 257.5 72.0002C257.5 69.791 255.709 68.0002 253.5 68.0002V72.0002V76.0002ZM176.833 68.0002C174.624 68.0002 172.833 69.791 172.833 72.0002C172.833 74.2093 174.624 76.0002 176.833 76.0002V72.0002V68.0002ZM100.167 76.0002C102.376 76.0002 104.167 74.2093 104.167 72.0002C104.167 69.791 102.376 68.0002 100.167 68.0002V72.0002V76.0002ZM79.8123 68.0883C77.6274 68.4149 76.121 70.4508 76.4476 72.6357C76.7742 74.8205 78.8101 76.327 80.995 76.0004L80.4036 72.0443L79.8123 68.0883ZM80.9963 76.0001C83.1504 75.5104 84.4997 73.3671 84.01 71.2129C83.5202 69.0587 81.3769 67.7094 79.2228 68.1992L80.1095 72.0996L80.9963 76.0001ZM75.1362 70.5581C73.6332 72.1772 73.7273 74.7081 75.3464 76.2111C76.9655 77.714 79.4964 77.6199 80.9994 76.0008L78.0678 73.2795L75.1362 70.5581ZM81.0002 75.9952C81.3268 73.8103 79.8204 71.7744 77.6355 71.4478C75.4506 71.1212 73.4147 72.6276 73.0881 74.8125L77.0442 75.4038L81.0002 75.9952ZM73 79.8097C73 82.0188 74.7909 83.8097 77 83.8097C79.2091 83.8097 81 82.0188 81 79.8097H77H73ZM81 81.7145C81 79.5053 79.2091 77.7145 77 77.7145C74.7909 77.7145 73 79.5053 73 81.7145H77H81ZM73 96.9525C73 99.1617 74.7909 100.953 77 100.953C79.2091 100.953 81 99.1617 81 96.9525H77H73ZM81 112.191C81 109.982 79.2091 108.191 77 108.191C74.7909 108.191 73 109.982 73 112.191H77H81ZM73.0882 117.188C73.4148 119.373 75.4508 120.879 77.6357 120.553C79.8205 120.226 81.3269 118.19 81.0002 116.005L77.0442 116.597L73.0882 117.188ZM81 116.004C80.5101 113.85 78.3668 112.5 76.2126 112.99C74.0585 113.48 72.7093 115.623 73.1991 117.778L77.0995 116.891L81 116.004ZM75.558 121.864C77.177 123.367 79.7079 123.273 81.2109 121.654C82.7139 120.035 82.6198 117.504 81.0008 116.001L78.2794 118.932L75.558 121.864ZM80.995 116C78.8102 115.673 76.7742 117.18 76.4476 119.365C76.121 121.549 77.6274 123.585 79.8122 123.912L80.4036 119.956L80.995 116ZM100.167 124C102.376 124 104.167 122.209 104.167 120C104.167 117.791 102.376 116 100.167 116V120V124ZM109.75 116C107.541 116 105.75 117.791 105.75 120C105.75 122.209 107.541 124 109.75 124V120V116ZM186.417 124C188.626 124 190.417 122.209 190.417 120C190.417 117.791 188.626 116 186.417 116V120V124ZM263.083 116C260.874 116 259.083 117.791 259.083 120C259.083 122.209 260.874 124 263.083 124V120V116ZM278.25 121.007C278.25 123.216 280.041 125.007 282.25 125.007C284.459 125.007 286.25 123.216 286.25 121.007H282.25H278.25ZM286.25 121.511C286.25 119.302 284.459 117.511 282.25 117.511C280.041 117.511 278.25 119.302 278.25 121.511H282.25H286.25ZM278.25 125.539C278.25 127.748 280.041 129.539 282.25 129.539C284.459 129.539 286.25 127.748 286.25 125.539H282.25H278.25ZM286.25 129.567C286.25 127.358 284.459 125.567 282.25 125.567C280.041 125.567 278.25 127.358 278.25 129.567H282.25H286.25ZM278.364 131.745C278.791 133.912 280.894 135.323 283.062 134.896C285.229 134.469 286.64 132.365 286.213 130.198L282.288 130.971L278.364 131.745ZM286.163 130C285.52 127.886 283.285 126.695 281.172 127.338C279.058 127.982 277.867 130.217 278.51 132.33L282.337 131.165L286.163 130ZM281.51 135.912C283.475 136.921 285.886 136.147 286.896 134.181C287.905 132.216 287.131 129.805 285.165 128.796L283.338 132.354L281.51 135.912ZM283.594 128.686C281.503 129.4 280.388 131.674 281.102 133.764C281.816 135.855 284.09 136.971 286.18 136.256L284.887 132.471L283.594 128.686ZM293.036 132.43C294.949 131.325 295.604 128.879 294.5 126.965C293.395 125.052 290.949 124.397 289.036 125.501L291.036 128.965L293.036 132.43ZM291.929 123.831C290.015 124.936 289.36 127.382 290.464 129.295C291.569 131.208 294.015 131.864 295.929 130.759L293.929 127.295L291.929 123.831ZM319.071 117.398C320.985 116.293 321.64 113.847 320.536 111.934C319.431 110.02 316.985 109.365 315.071 110.47L317.071 113.934L319.071 117.398ZM338.214 97.1079C336.301 98.2125 335.646 100.659 336.75 102.572C337.855 104.485 340.301 105.141 342.214 104.036L340.214 100.572L338.214 97.1079ZM348.956 100.012C350.62 98.5588 350.79 96.0318 349.337 94.3682C347.883 92.7046 345.356 92.5342 343.693 93.9877L346.325 97L348.956 100.012ZM343.546 94.1297C342.037 95.7434 342.123 98.2747 343.736 99.7833C345.35 101.292 347.881 101.207 349.39 99.5929L346.468 96.8613L343.546 94.1297ZM350.993 95.2045C350.885 92.998 349.009 91.2968 346.802 91.4047C344.596 91.5126 342.894 93.3888 343.002 95.5953L346.997 95.3999L350.993 95.2045ZM343.693 97.0118C345.357 98.4652 347.884 98.2946 349.337 96.6309C350.79 94.9671 350.62 92.4402 348.956 90.9869L346.325 93.9993L343.693 97.0118ZM342.214 86.9632C340.301 85.8587 337.855 86.5142 336.75 88.4273C335.646 90.3405 336.301 92.7869 338.214 93.8914L340.214 90.4273L342.214 86.9632ZM335.321 92.2212C337.235 93.3258 339.681 92.6703 340.786 90.7571C341.89 88.844 341.235 86.3976 339.321 85.293L337.321 88.7571L335.321 92.2212ZM316.179 71.9314C314.265 70.8269 311.819 71.4824 310.714 73.3955C309.61 75.3087 310.265 77.7551 312.179 78.8596L314.179 75.3955L316.179 71.9314ZM289.036 65.498C290.949 66.6026 293.395 65.9471 294.5 64.0339C295.604 62.1208 294.949 59.6744 293.036 58.5698L291.036 62.0339L289.036 65.498ZM286.18 54.7428C284.089 54.029 281.816 55.1451 281.102 57.2357C280.388 59.3263 281.504 61.5998 283.595 62.3136L284.887 58.5282L286.18 54.7428ZM283.791 62.3698C285.943 62.8692 288.092 61.5295 288.592 59.3776C289.091 57.2256 287.751 55.0763 285.599 54.5769L284.695 58.4733L283.791 62.3698ZM280.998 55.3839C279.141 56.5808 278.606 59.0564 279.803 60.9131C281 62.7699 283.475 63.3048 285.332 62.1078L283.165 58.7458L280.998 55.3839ZM286.213 60.8019C286.64 58.6344 285.229 56.5312 283.061 56.1044C280.894 55.6775 278.79 57.0886 278.364 59.2562L282.288 60.029L286.213 60.8019ZM282.25 60.4259H278.25V61.5283H282.25H286.25V60.4259H282.25ZM282.25 62.0794H278.25V66.4886H282.25H286.25V62.0794H282.25ZM282.25 70.8979H278.25V72.0002H282.25H286.25V70.8979H282.25ZM282.25 72.0002V68.0002H263.083V72.0002V76.0002H282.25V72.0002ZM253.5 72.0002V68.0002H176.833V72.0002V76.0002H253.5V72.0002ZM100.167 72.0002V68.0002H81V72.0002V76.0002H100.167V72.0002ZM81 72.0002V68.0002C80.5988 68.0002 80.202 68.03 79.8123 68.0883L80.4036 72.0443L80.995 76.0004C80.9944 76.0004 80.9959 76.0002 81 76.0002V72.0002ZM80.1095 72.0996L79.2228 68.1992C77.6193 68.5637 76.2061 69.4056 75.1362 70.5581L78.0678 73.2795L80.9994 76.0008C81.0013 75.9987 81.0029 75.9977 81.0029 75.9977C81.0023 75.9981 80.9997 75.9993 80.9963 76.0001L80.1095 72.0996ZM77.0442 75.4038L73.0881 74.8125C73.0299 75.2021 73 75.5989 73 76.0002H77H81C81 75.9961 81.0003 75.9946 81.0002 75.9952L77.0442 75.4038ZM77 76.0002H73V79.8097H77H81V76.0002H77ZM77 81.7145H73V96.9525H77H81V81.7145H77ZM77 112.191H73V116H77H81V112.191H77ZM77 116L73 116C73 116.402 73.0299 116.798 73.0882 117.188L77.0442 116.597L81.0002 116.005C81.0003 116.006 81 116.004 81 116L77 116ZM77.0995 116.891L73.1991 117.778C73.5636 119.381 74.4055 120.794 75.558 121.864L78.2794 118.932L81.0008 116.001C80.9998 116 80.999 115.999 80.9984 115.998C80.9977 115.997 80.9975 115.997 80.9976 115.997C80.9979 115.998 80.9992 116 81 116.004L77.0995 116.891ZM80.4036 119.956L79.8122 123.912C80.2019 123.97 80.5987 124 81 124V120V116C80.9959 116 80.9945 116 80.995 116L80.4036 119.956ZM81 120V124H100.167V120V116H81V120ZM109.75 120V124H186.417V120V116H109.75V120ZM263.083 120V124H282.25V120V116H263.083V120ZM282.25 120H278.25V121.007H282.25H286.25V120H282.25ZM282.25 121.511H278.25V125.539H282.25H286.25V121.511H282.25ZM282.25 129.567H278.25V130.574H282.25H286.25V129.567H282.25ZM282.25 130.574L278.25 130.575C278.25 130.97 278.288 131.362 278.364 131.745L282.288 130.971L286.213 130.198C286.238 130.327 286.25 130.453 286.25 130.574L282.25 130.574ZM282.337 131.165L278.51 132.33C279.006 133.957 280.14 135.208 281.51 135.912L283.338 132.354L285.165 128.796C285.603 129.02 285.991 129.433 286.163 130L282.337 131.165ZM284.887 132.471L286.18 136.256C286.55 136.13 286.908 135.968 287.25 135.77L285.25 132.306L283.25 128.842C283.355 128.781 283.47 128.728 283.594 128.686L284.887 132.471ZM285.25 132.306L287.25 135.77L293.036 132.43L291.036 128.965L289.036 125.501L283.25 128.842L285.25 132.306ZM293.929 127.295L295.929 130.759L319.071 117.398L317.071 113.934L315.071 110.47L291.929 123.831L293.929 127.295ZM340.214 100.572L342.214 104.036L348 100.696L346 97.2316L344 93.7675L338.214 97.1079L340.214 100.572ZM346 97.2316L348 100.696C348.343 100.498 348.662 100.269 348.956 100.012L346.325 97L343.693 93.9877C343.792 93.9014 343.895 93.8282 344 93.7677L346 97.2316ZM346.468 96.8613L349.39 99.5929C350.551 98.3509 351.068 96.7435 350.993 95.2045L346.997 95.3999L343.002 95.5953C342.978 95.1041 343.142 94.5618 343.546 94.1297L346.468 96.8613ZM346.325 93.9993L348.956 90.9869C348.662 90.73 348.342 90.5012 348 90.3036L346 93.7677L344 97.2318C343.895 97.1714 343.792 97.0981 343.693 97.0118L346.325 93.9993ZM346 93.7677L348 90.3036L342.214 86.9632L340.214 90.4273L338.214 93.8914L344 97.2318L346 93.7677ZM337.321 88.7571L339.321 85.293L316.179 71.9314L314.179 75.3955L312.179 78.8596L335.321 92.2212L337.321 88.7571ZM291.036 62.0339L293.036 58.5698L287.25 55.2294L285.25 58.6935L283.25 62.1576L289.036 65.498L291.036 62.0339ZM285.25 58.6935L287.25 55.2292C286.907 55.0316 286.549 54.869 286.18 54.7428L284.887 58.5282L283.595 62.3136C283.47 62.2712 283.355 62.2183 283.25 62.1578L285.25 58.6935ZM284.695 58.4733L285.599 54.5769C283.943 54.1925 282.292 54.5491 280.998 55.3839L283.165 58.7458L285.332 62.1078C284.919 62.3741 284.368 62.5036 283.791 62.3698L284.695 58.4733ZM282.288 60.029L278.364 59.2562C278.288 59.6392 278.25 60.0307 278.25 60.4259L282.25 60.4259L286.25 60.426C286.25 60.5469 286.238 60.6732 286.213 60.8019L282.288 60.029Z" fill="black"/>
<path d="M260.25 369.004C260.25 367.464 261.917 366.502 263.25 367.271L324 402.346C325.333 403.115 325.333 405.04 324 405.809L263.25 440.884C261.917 441.653 260.25 440.691 260.25 439.151V429H145C142.791 429 141 427.209 141 425V385C141 382.791 142.791 381 145 381H260.25V369.004Z" fill="#E8ACAC"/>
<path d="M260.25 369.004H256.25V369.004H260.25ZM263.25 367.271L265.25 363.807L265.25 363.807L263.25 367.271ZM324 402.346L326 398.882L326 398.881L324 402.346ZM324 405.809L326 409.274L326 409.274L324 405.809ZM263.25 440.884L265.25 444.348L265.25 444.348L263.25 440.884ZM260.25 439.151H264.25V439.151H260.25ZM260.25 429H264.25C264.25 426.791 262.459 425 260.25 425V429ZM141 385L137 385V385H141ZM145 381V377V381ZM260.25 381V385C262.459 385 264.25 383.209 264.25 381H260.25ZM256.25 371.289C256.25 373.498 258.041 375.289 260.25 375.289C262.459 375.289 264.25 373.498 264.25 371.289H260.25H256.25ZM264.25 371.86C264.25 369.651 262.459 367.86 260.25 367.86C258.041 367.86 256.25 369.651 256.25 371.86H260.25H264.25ZM256.25 374.145C256.25 376.354 258.041 378.145 260.25 378.145C262.459 378.145 264.25 376.354 264.25 374.145H260.25H256.25ZM264.25 378.715C264.25 376.506 262.459 374.715 260.25 374.715C258.041 374.715 256.25 376.506 256.25 378.715H260.25H264.25ZM238.298 377C236.088 377 234.298 378.791 234.298 381C234.298 383.209 236.088 385 238.298 385V381V377ZM232.81 385C235.019 385 236.81 383.209 236.81 381C236.81 378.791 235.019 377 232.81 377V381V385ZM210.857 377C208.648 377 206.857 378.791 206.857 381C206.857 383.209 208.648 385 210.857 385V381V377ZM166.952 385C169.162 385 170.952 383.209 170.952 381C170.952 378.791 169.162 377 166.952 377V381V385ZM142.643 377.354C140.532 378.004 139.347 380.243 139.998 382.354C140.649 384.466 142.887 385.65 144.998 384.999L143.821 381.177L142.643 377.354ZM145.001 384.998C147.057 384.191 148.069 381.869 147.261 379.813C146.454 377.757 144.132 376.745 142.076 377.552L143.538 381.275L145.001 384.998ZM140.01 378.747C138.284 380.125 138.002 382.642 139.38 384.368C140.759 386.095 143.276 386.377 145.002 384.998L142.506 381.872L140.01 378.747ZM144.999 384.998C145.65 382.887 144.466 380.648 142.355 379.998C140.243 379.347 138.005 380.531 137.354 382.643L141.177 383.821L144.999 384.998ZM137 392.619C137 394.828 138.791 396.619 141 396.619C143.209 396.619 145 394.828 145 392.619H141H137ZM145 394.524C145 392.315 143.209 390.524 141 390.524C138.791 390.524 137 392.315 137 394.524H141H145ZM137 402.143C137 404.352 138.791 406.143 141 406.143C143.209 406.143 145 404.352 145 402.143H141H137ZM145 417.381C145 415.172 143.209 413.381 141 413.381C138.791 413.381 137 415.172 137 417.381H141H145ZM137.354 427.357C138.005 429.468 140.243 430.652 142.355 430.002C144.466 429.351 145.65 427.113 144.999 425.001L141.177 426.179L137.354 427.357ZM144.999 424.999C144.191 422.943 141.869 421.931 139.813 422.739C137.757 423.546 136.745 425.868 137.552 427.924L141.276 426.462L144.999 424.999ZM138.747 429.99C140.125 431.716 142.642 431.998 144.368 430.62C146.095 429.241 146.377 426.724 144.998 424.998L141.873 427.494L138.747 429.99ZM144.998 425.001C142.887 424.35 140.648 425.534 139.998 427.645C139.347 429.757 140.532 431.995 142.643 432.646L143.821 428.823L144.998 425.001ZM166.952 433C169.162 433 170.952 431.209 170.952 429C170.952 426.791 169.162 425 166.952 425V429V433ZM172.44 425C170.231 425 168.44 426.791 168.44 429C168.44 431.209 170.231 433 172.44 433V429V425ZM194.393 433C196.602 433 198.393 431.209 198.393 429C198.393 426.791 196.602 425 194.393 425V429V433ZM238.298 425C236.088 425 234.298 426.791 234.298 429C234.298 431.209 236.088 433 238.298 433V429V425ZM256.25 430.933C256.25 433.143 258.041 434.933 260.25 434.933C262.459 434.933 264.25 433.143 264.25 430.933H260.25H256.25ZM264.25 431.417C264.25 429.208 262.459 427.417 260.25 427.417C258.041 427.417 256.25 429.208 256.25 431.417H260.25H264.25ZM256.25 433.35C256.25 435.56 258.041 437.35 260.25 437.35C262.459 437.35 264.25 435.56 264.25 433.35H260.25H256.25ZM264.25 437.218C264.25 435.009 262.459 433.218 260.25 433.218C258.041 433.218 256.25 435.009 256.25 437.218H260.25H264.25ZM256.716 441.478C257.571 443.515 259.916 444.473 261.952 443.618C263.989 442.763 264.948 440.418 264.093 438.381L260.404 439.929L256.716 441.478ZM264.002 438.193C262.944 436.254 260.514 435.54 258.575 436.598C256.635 437.657 255.921 440.087 256.98 442.026L260.491 440.109L264.002 438.193ZM258.517 443.849C260.247 445.222 262.763 444.932 264.136 443.201C265.509 441.47 265.219 438.954 263.488 437.581L261.003 440.715L258.517 443.849ZM261.996 437.171C259.804 437.448 258.253 439.45 258.531 441.642C258.808 443.833 260.81 445.385 263.002 445.107L262.499 441.139L261.996 437.171ZM276.821 437.667C278.735 436.562 279.39 434.116 278.286 432.203C277.181 430.29 274.735 429.634 272.821 430.739L274.821 434.203L276.821 437.667ZM275.714 429.069C273.801 430.173 273.146 432.619 274.25 434.533C275.355 436.446 277.801 437.101 279.714 435.997L277.714 432.533L275.714 429.069ZM291.286 429.316C293.199 428.211 293.854 425.765 292.75 423.852C291.645 421.939 289.199 421.283 287.286 422.388L289.286 425.852L291.286 429.316ZM310.429 409.026C308.515 410.131 307.86 412.577 308.964 414.49C310.069 416.403 312.515 417.059 314.429 415.954L312.429 412.49L310.429 409.026ZM327.782 407.707C329.118 405.948 328.776 403.438 327.017 402.102C325.258 400.765 322.748 401.108 321.412 402.867L324.597 405.287L327.782 407.707ZM321.294 403.039C320.144 404.926 320.741 407.387 322.627 408.537C324.513 409.687 326.974 409.09 328.124 407.204L324.709 405.122L321.294 403.039ZM328.935 404.961C329.258 402.776 327.749 400.742 325.564 400.419C323.378 400.096 321.344 401.605 321.021 403.79L324.978 404.376L328.935 404.961ZM321.412 405.288C322.748 407.047 325.258 407.39 327.017 406.053C328.776 404.717 329.118 402.207 327.782 400.448L324.597 402.868L321.412 405.288ZM314.429 392.201C312.515 391.096 310.069 391.752 308.964 393.665C307.86 395.578 308.515 398.024 310.429 399.129L312.429 395.665L314.429 392.201ZM307.536 397.459C309.449 398.563 311.895 397.908 313 395.995C314.104 394.081 313.449 391.635 311.536 390.53L309.536 393.995L307.536 397.459ZM299.964 383.85C298.051 382.745 295.605 383.401 294.5 385.314C293.396 387.227 294.051 389.673 295.964 390.778L297.964 387.314L299.964 383.85ZM272.821 377.416C274.735 378.521 277.181 377.865 278.286 375.952C279.39 374.039 278.735 371.593 276.821 370.488L274.821 373.952L272.821 377.416ZM263.002 363.048C260.81 362.77 258.808 364.321 258.531 366.513C258.253 368.705 259.804 370.706 261.996 370.984L262.499 367.016L263.002 363.048ZM262.205 371C264.413 371.053 266.246 369.305 266.299 367.096C266.351 364.888 264.604 363.055 262.395 363.002L262.3 367.001L262.205 371ZM260.047 363.422C257.993 364.235 256.987 366.559 257.8 368.613C258.613 370.667 260.937 371.674 262.991 370.861L261.519 367.141L260.047 363.422ZM264.093 369.774C264.948 367.737 263.989 365.392 261.952 364.537C259.915 363.682 257.571 364.641 256.716 366.677L260.404 368.226L264.093 369.774ZM260.25 369.004H256.25V371.289H260.25H264.25V369.004H260.25ZM260.25 371.86H256.25V374.145H260.25H264.25V371.86H260.25ZM260.25 378.715H256.25V381H260.25H264.25V378.715H260.25ZM260.25 381V377H238.298V381V385H260.25V381ZM232.81 381V377H210.857V381V385H232.81V381ZM166.952 381V377H145V381V385H166.952V381ZM145 381V377C144.186 377 143.393 377.123 142.643 377.354L143.821 381.177L144.998 384.999C144.997 385 144.996 385 144.995 385C144.994 385 144.996 385 145 385V381ZM143.538 381.275L142.076 377.552C141.323 377.848 140.628 378.253 140.01 378.747L142.506 381.872L145.002 384.998C145.004 384.997 145.003 384.997 145.001 384.998L143.538 381.275ZM141.177 383.821L137.354 382.643C137.123 383.393 137 384.186 137 385L141 385L145 385C145 384.996 145 384.994 145 384.995C145 384.996 145 384.997 144.999 384.998L141.177 383.821ZM141 385H137V392.619H141H145V385H141ZM141 394.524H137V402.143H141H145V394.524H141ZM141 417.381H137V425H141H145V417.381H141ZM141 425H137C137 425.814 137.123 426.607 137.354 427.357L141.177 426.179L144.999 425.001C145 425.003 145 425.004 145 425.005C145 425.005 145 425.004 145 425H141ZM141.276 426.462L137.552 427.924C137.848 428.677 138.253 429.372 138.747 429.99L141.873 427.494L144.998 424.998C144.997 424.996 144.998 424.997 144.999 424.999L141.276 426.462ZM143.821 428.823L142.643 432.646C143.393 432.877 144.186 433 145 433V429V425C144.996 425 144.994 425 144.995 425C144.996 425 144.997 425 144.998 425.001L143.821 428.823ZM145 429V433H166.952V429V425H145V429ZM172.44 429V433H194.393V429V425H172.44V429ZM238.298 429V433H260.25V429V425H238.298V429ZM260.25 429H256.25V430.933H260.25H264.25V429H260.25ZM260.25 431.417H256.25V433.35H260.25H264.25V431.417H260.25ZM260.25 437.218H256.25V439.151H260.25H264.25V437.218H260.25ZM260.25 439.151H256.25C256.25 439.966 256.412 440.754 256.716 441.478L260.404 439.929L264.093 438.381C264.199 438.634 264.25 438.898 264.25 439.151H260.25ZM260.491 440.109L256.98 442.026C257.374 442.748 257.904 443.363 258.517 443.849L261.003 440.715L263.488 437.581C263.688 437.74 263.866 437.945 264.002 438.193L260.491 440.109ZM262.499 441.139L263.002 445.107C263.78 445.009 264.544 444.755 265.25 444.348L263.25 440.884L261.25 437.419C261.469 437.293 261.724 437.205 261.996 437.171L262.499 441.139ZM263.25 440.884L265.25 444.348L276.821 437.667L274.821 434.203L272.821 430.739L261.25 437.42L263.25 440.884ZM277.714 432.533L279.714 435.997L291.286 429.316L289.286 425.852L287.286 422.388L275.714 429.069L277.714 432.533ZM312.429 412.49L314.429 415.954L326 409.274L324 405.809L322 402.345L310.429 409.026L312.429 412.49ZM324 405.809L326 409.274C326.706 408.866 327.307 408.332 327.782 407.707L324.597 405.287L321.412 402.867C321.578 402.648 321.781 402.472 322 402.345L324 405.809ZM324.709 405.122L328.124 407.204C328.553 406.501 328.82 405.735 328.935 404.961L324.978 404.376L321.021 403.79C321.058 403.538 321.147 403.281 321.294 403.039L324.709 405.122ZM324.597 402.868L327.782 400.448C327.307 399.823 326.706 399.289 326 398.882L324 402.346L322 405.81C321.781 405.683 321.578 405.506 321.412 405.288L324.597 402.868ZM324 402.346L326 398.881L314.429 392.201L312.429 395.665L310.429 399.129L322 405.81L324 402.346ZM309.536 393.995L311.536 390.53L299.964 383.85L297.964 387.314L295.964 390.778L307.536 397.459L309.536 393.995ZM274.821 373.952L276.821 370.488L265.25 363.807L263.25 367.271L261.25 370.735L272.821 377.416L274.821 373.952ZM263.25 367.271L265.25 363.807C264.544 363.4 263.781 363.146 263.002 363.048L262.499 367.016L261.996 370.984C261.724 370.95 261.469 370.862 261.25 370.735L263.25 367.271ZM262.3 367.001L262.395 363.002C261.572 362.983 260.775 363.134 260.047 363.422L261.519 367.141L262.991 370.861C262.754 370.954 262.488 371.007 262.205 371L262.3 367.001ZM260.404 368.226L256.716 366.677C256.412 367.401 256.25 368.189 256.25 369.004H260.25L264.25 369.004C264.25 369.257 264.199 369.521 264.093 369.774L260.404 368.226Z" fill="black"/>
<path d="M423 127C425.209 127 427 128.791 427 131V277C427 279.209 425.209 281 423 281H360.75V288.11C360.75 291.189 357.417 293.114 354.75 291.574L300 259.964C297.333 258.424 297.333 254.576 300 253.036L354.75 221.426C357.417 219.886 360.75 221.811 360.75 224.89V233H379V131C379 128.791 380.791 127 383 127H423Z" fill="#E8ACAC"/>
<path d="M423 127V131V131V127ZM427 131H431V131L427 131ZM427 277H431V277H427ZM423 281V277V277V281ZM360.75 281V277C358.541 277 356.75 278.791 356.75 281H360.75ZM360.75 288.11L364.75 288.111V288.11H360.75ZM354.75 291.574L352.75 295.038L352.75 295.038L354.75 291.574ZM300 259.964L302 256.5H302L300 259.964ZM300 253.036L302 256.5H302L300 253.036ZM354.75 221.426L352.75 217.962L352.75 217.962L354.75 221.426ZM360.75 224.89H364.75V224.889L360.75 224.89ZM360.75 233H356.75C356.75 235.209 358.541 237 360.75 237V233ZM379 233V237C381.209 237 383 235.209 383 233H379ZM379 131L375 131V131H379ZM383 127V123V123V127ZM415.381 123C413.172 123 411.381 124.791 411.381 127C411.381 129.209 413.172 131 415.381 131V127V123ZM413.476 131C415.685 131 417.476 129.209 417.476 127C417.476 124.791 415.685 123 413.476 123V127V131ZM405.857 123C403.648 123 401.857 124.791 401.857 127C401.857 129.209 403.648 131 405.857 131V127V123ZM390.619 131C392.828 131 394.619 129.209 394.619 127C394.619 124.791 392.828 123 390.619 123V127V131ZM380.643 123.354C378.532 124.005 377.347 126.243 377.998 128.355C378.648 130.466 380.887 131.65 382.998 130.999L381.821 127.177L380.643 123.354ZM383.001 130.999C385.057 130.191 386.069 127.869 385.261 125.813C384.454 123.757 382.132 122.745 380.076 123.552L381.538 127.276L383.001 130.999ZM378.01 124.747C376.284 126.125 376.002 128.642 377.38 130.368C378.759 132.095 381.276 132.377 383.002 130.998L380.506 127.873L378.01 124.747ZM382.999 130.998C383.65 128.887 382.466 126.648 380.355 125.998C378.243 125.347 376.005 126.532 375.354 128.643L379.177 129.821L382.999 130.998ZM375 150.429C375 152.638 376.791 154.429 379 154.429C381.209 154.429 383 152.638 383 150.429H379H375ZM383 155.286C383 153.077 381.209 151.286 379 151.286C376.791 151.286 375 153.077 375 155.286H379H383ZM375 174.714C375 176.923 376.791 178.714 379 178.714C381.209 178.714 383 176.923 383 174.714H379H375ZM383 213.571C383 211.362 381.209 209.571 379 209.571C376.791 209.571 375 211.362 375 213.571H379H383ZM375.524 229C373.315 229 371.524 230.791 371.524 233C371.524 235.209 373.315 237 375.524 237V233V229ZM374.655 237C376.864 237 378.655 235.209 378.655 233C378.655 230.791 376.864 229 374.655 229V233V237ZM371.179 229C368.969 229 367.179 230.791 367.179 233C367.179 235.209 368.969 237 371.179 237V233V229ZM364.226 237C366.435 237 368.226 235.209 368.226 233C368.226 230.791 366.435 229 364.226 229V233V237ZM364.75 231.455C364.75 229.246 362.959 227.455 360.75 227.455C358.541 227.455 356.75 229.246 356.75 231.455H360.75H364.75ZM356.75 231.069C356.75 233.278 358.541 235.069 360.75 235.069C362.959 235.069 364.75 233.278 364.75 231.069H360.75H356.75ZM364.75 229.524C364.75 227.315 362.959 225.524 360.75 225.524C358.541 225.524 356.75 227.315 356.75 229.524H360.75H364.75ZM356.75 226.434C356.75 228.644 358.541 230.434 360.75 230.434C362.959 230.434 364.75 228.644 364.75 226.434H360.75H356.75ZM364.129 221.785C363.274 219.748 360.929 218.79 358.893 219.645C356.856 220.501 355.898 222.845 356.753 224.882L360.441 223.333L364.129 221.785ZM356.757 224.891C357.816 226.83 360.246 227.543 362.185 226.485C364.124 225.426 364.837 222.996 363.779 221.057L360.268 222.974L356.757 224.891ZM361.73 218.628C359.999 217.255 357.483 217.546 356.11 219.277C354.738 221.008 355.028 223.524 356.759 224.896L359.245 221.762L361.73 218.628ZM356.755 224.883C358.947 224.605 360.498 222.604 360.22 220.412C359.942 218.22 357.941 216.669 355.749 216.947L356.252 220.915L356.755 224.883ZM342.321 223.983C340.408 225.087 339.753 227.534 340.857 229.447C341.962 231.36 344.408 232.015 346.321 230.911L344.321 227.447L342.321 223.983ZM343.714 232.416C345.627 231.312 346.283 228.865 345.178 226.952C344.074 225.039 341.627 224.383 339.714 225.488L341.714 228.952L343.714 232.416ZM329.286 231.509C327.373 232.614 326.717 235.06 327.822 236.973C328.926 238.886 331.373 239.542 333.286 238.437L331.286 234.973L329.286 231.509ZM312.429 250.479C314.342 249.375 314.997 246.928 313.893 245.015C312.788 243.102 310.342 242.446 308.429 243.551L310.429 247.015L312.429 250.479ZM295.622 251.661C294.285 253.42 294.628 255.93 296.386 257.266C298.145 258.603 300.655 258.261 301.991 256.502L298.807 254.082L295.622 251.661ZM301.997 256.494C303.147 254.608 302.55 252.146 300.664 250.996C298.778 249.846 296.317 250.443 295.167 252.329L298.582 254.411L301.997 256.494ZM294.087 255.318C293.764 257.503 295.273 259.537 297.458 259.86C299.644 260.184 301.677 258.674 302.001 256.489L298.044 255.903L294.087 255.318ZM301.991 256.498C300.655 254.739 298.145 254.397 296.386 255.734C294.628 257.07 294.285 259.58 295.622 261.339L298.807 258.918L301.991 256.498ZM308.429 269.449C310.342 270.554 312.788 269.898 313.893 267.985C314.997 266.072 314.342 263.625 312.429 262.521L310.429 265.985L308.429 269.449ZM315.036 264.026C313.123 262.921 310.676 263.577 309.572 265.49C308.467 267.403 309.123 269.85 311.036 270.954L313.036 267.49L315.036 264.026ZM321.464 276.975C323.377 278.08 325.824 277.424 326.928 275.511C328.033 273.598 327.377 271.152 325.464 270.047L323.464 273.511L321.464 276.975ZM346.321 282.089C344.408 280.985 341.962 281.64 340.857 283.553C339.753 285.466 340.408 287.913 342.321 289.017L344.321 285.553L346.321 282.089ZM355.749 296.053C357.941 296.331 359.942 294.78 360.22 292.588C360.498 290.396 358.947 288.395 356.755 288.117L356.252 292.085L355.749 296.053ZM356.746 288.116C354.537 288.063 352.704 289.811 352.651 292.019C352.598 294.228 354.346 296.061 356.554 296.114L356.65 292.115L356.746 288.116ZM359.682 295.554C361.737 294.741 362.743 292.417 361.931 290.363C361.118 288.309 358.794 287.302 356.74 288.115L358.211 291.834L359.682 295.554ZM356.753 288.118C355.898 290.155 356.856 292.499 358.893 293.355C360.929 294.21 363.274 293.252 364.129 291.215L360.441 289.667L356.753 288.118ZM364.75 286.756C364.75 284.547 362.959 282.756 360.75 282.756C358.541 282.756 356.75 284.547 356.75 286.756H360.75H364.75ZM356.75 286.417C356.75 288.627 358.541 290.417 360.75 290.417C362.959 290.417 364.75 288.627 364.75 286.417H360.75H356.75ZM364.75 285.063C364.75 282.854 362.959 281.063 360.75 281.063C358.541 281.063 356.75 282.854 356.75 285.063H360.75H364.75ZM356.75 282.354C356.75 284.563 358.541 286.354 360.75 286.354C362.959 286.354 364.75 284.563 364.75 282.354H360.75H356.75ZM372.607 285C374.816 285 376.607 283.209 376.607 281C376.607 278.791 374.816 277 372.607 277V281V285ZM375.571 277C373.362 277 371.571 278.791 371.571 281C371.571 283.209 373.362 285 375.571 285V281V277ZM387.429 285C389.638 285 391.429 283.209 391.429 281C391.429 278.791 389.638 277 387.429 277V281V285ZM411.143 277C408.934 277 407.143 278.791 407.143 281C407.143 283.209 408.934 285 411.143 285V281V277ZM425.357 284.646C427.468 283.995 428.653 281.757 428.002 279.645C427.352 277.534 425.113 276.35 423.002 277.001L424.179 280.823L425.357 284.646ZM422.999 277.001C420.943 277.809 419.931 280.131 420.739 282.187C421.546 284.243 423.868 285.255 425.924 284.448L424.462 280.724L422.999 277.001ZM427.99 283.253C429.716 281.875 429.998 279.358 428.62 277.632C427.241 275.905 424.724 275.623 422.998 277.002L425.494 280.127L427.99 283.253ZM423.001 277.002C422.35 279.113 423.534 281.352 425.645 282.002C427.757 282.653 429.995 281.468 430.646 279.357L426.823 278.179L423.001 277.002ZM431 249.19C431 246.981 429.209 245.19 427 245.19C424.791 245.19 423 246.981 423 249.19H427H431ZM423 242.238C423 244.447 424.791 246.238 427 246.238C429.209 246.238 431 244.447 431 242.238H427H423ZM431 214.429C431 212.219 429.209 210.429 427 210.429C424.791 210.429 423 212.219 423 214.429H427H431ZM423 158.81C423 161.019 424.791 162.81 427 162.81C429.209 162.81 431 161.019 431 158.81H427H423ZM430.646 128.643C429.995 126.532 427.757 125.347 425.645 125.998C423.534 126.648 422.35 128.887 423.001 130.998L426.823 129.821L430.646 128.643ZM423.001 131.001C423.809 133.057 426.131 134.069 428.187 133.261C430.243 132.454 431.255 130.132 430.448 128.076L426.724 129.538L423.001 131.001ZM429.253 126.01C427.875 124.284 425.358 124.002 423.632 125.38C421.905 126.759 421.623 129.276 423.002 131.002L426.127 128.506L429.253 126.01ZM423.002 130.999C425.113 131.65 427.352 130.466 428.002 128.355C428.653 126.243 427.468 124.005 425.357 123.354L424.179 127.177L423.002 130.999ZM423 127V123H415.381V127V131H423V127ZM413.476 127V123H405.857V127V131H413.476V127ZM390.619 127V123H383V127V131H390.619V127ZM383 127V123C382.186 123 381.393 123.123 380.643 123.354L381.821 127.177L382.998 130.999C382.997 131 382.996 131 382.995 131C382.994 131 382.996 131 383 131V127ZM381.538 127.276L380.076 123.552C379.323 123.848 378.628 124.253 378.01 124.747L380.506 127.873L383.002 130.998C383.004 130.997 383.003 130.998 383.001 130.999L381.538 127.276ZM379.177 129.821L375.354 128.643C375.123 129.393 375 130.186 375 131L379 131L383 131C383 130.996 383 130.994 383 130.995C383 130.996 383 130.997 382.999 130.998L379.177 129.821ZM379 131H375V150.429H379H383V131H379ZM379 155.286H375V174.714H379H383V155.286H379ZM379 213.571H375V233H379H383V213.571H379ZM379 233V229H375.524V233V237H379V233ZM374.655 233V229H371.179V233V237H374.655V233ZM364.226 233V229H360.75V233V237H364.226V233ZM360.75 233H364.75V231.455H360.75H356.75V233H360.75ZM360.75 231.069H364.75V229.524H360.75H356.75V231.069H360.75ZM360.75 226.434H364.75V224.89H360.75H356.75V226.434H360.75ZM360.75 224.89L364.75 224.889C364.75 223.793 364.532 222.744 364.129 221.785L360.441 223.333L356.753 224.882C356.75 224.876 356.749 224.871 356.749 224.869C356.749 224.869 356.749 224.87 356.749 224.873C356.75 224.876 356.75 224.881 356.75 224.89L360.75 224.89ZM360.268 222.974L363.779 221.057C363.255 220.097 362.55 219.278 361.73 218.628L359.245 221.762L356.759 224.896C356.766 224.902 356.763 224.902 356.757 224.891L360.268 222.974ZM356.252 220.915L355.749 216.947C354.717 217.078 353.699 217.414 352.75 217.962L354.75 221.426L356.75 224.89C356.757 224.886 356.762 224.883 356.765 224.882C356.768 224.881 356.769 224.88 356.769 224.881C356.767 224.881 356.762 224.882 356.755 224.883L356.252 220.915ZM354.75 221.426L352.75 217.962L342.321 223.983L344.321 227.447L346.321 230.911L356.75 224.89L354.75 221.426ZM341.714 228.952L339.714 225.488L329.286 231.509L331.286 234.973L333.286 238.437L343.714 232.416L341.714 228.952ZM310.429 247.015L308.429 243.551L298 249.572L300 253.036L302 256.5L312.429 250.479L310.429 247.015ZM300 253.036L298 249.572C297.051 250.12 296.251 250.833 295.622 251.661L298.807 254.082L301.991 256.502C301.987 256.507 301.984 256.511 301.982 256.512C301.982 256.512 301.983 256.511 301.985 256.51C301.988 256.508 301.992 256.505 302 256.5L300 253.036ZM298.582 254.411L295.167 252.329C294.597 253.262 294.24 254.283 294.087 255.318L298.044 255.903L302.001 256.489C302.002 256.48 302.003 256.483 301.997 256.494L298.582 254.411ZM298.807 258.918L295.622 261.339C296.251 262.167 297.051 262.88 298 263.428L300 259.964L302 256.5C301.992 256.495 301.988 256.492 301.985 256.49C301.983 256.489 301.982 256.488 301.982 256.488C301.984 256.489 301.987 256.493 301.991 256.498L298.807 258.918ZM300 259.964L298 263.428L308.429 269.449L310.429 265.985L312.429 262.521L302 256.5L300 259.964ZM313.036 267.49L311.036 270.954L321.464 276.975L323.464 273.511L325.464 270.047L315.036 264.026L313.036 267.49ZM344.321 285.553L342.321 289.017L352.75 295.038L354.75 291.574L356.75 288.11L346.321 282.089L344.321 285.553ZM354.75 291.574L352.75 295.038C353.699 295.586 354.717 295.922 355.749 296.053L356.252 292.085L356.755 288.117C356.762 288.118 356.767 288.119 356.769 288.119C356.769 288.12 356.768 288.119 356.765 288.118C356.762 288.117 356.757 288.114 356.75 288.11L354.75 291.574ZM356.65 292.115L356.554 296.114C357.647 296.14 358.71 295.939 359.682 295.554L358.211 291.834L356.74 288.115C356.731 288.118 356.733 288.116 356.746 288.116L356.65 292.115ZM360.441 289.667L364.129 291.215C364.532 290.256 364.75 289.207 364.75 288.111L360.75 288.11L356.75 288.11C356.75 288.119 356.75 288.124 356.749 288.127C356.749 288.13 356.749 288.132 356.749 288.131C356.749 288.129 356.75 288.124 356.753 288.118L360.441 289.667ZM360.75 288.11H364.75V286.756H360.75H356.75V288.11H360.75ZM360.75 286.417H364.75V285.063H360.75H356.75V286.417H360.75ZM360.75 282.354H364.75V281H360.75H356.75V282.354H360.75ZM360.75 281V285H372.607V281V277H360.75V281ZM375.571 281V285H387.429V281V277H375.571V281ZM411.143 281V285H423V281V277H411.143V281ZM423 281V285C423.814 285 424.607 284.877 425.357 284.646L424.179 280.823L423.002 277.001C423.003 277 423.004 277 423.005 277C423.006 277 423.004 277 423 277V281ZM424.462 280.724L425.924 284.448C426.677 284.152 427.372 283.747 427.99 283.253L425.494 280.127L422.998 277.002C422.996 277.003 422.997 277.002 422.999 277.001L424.462 280.724ZM426.823 278.179L430.646 279.357C430.877 278.607 431 277.814 431 277H427H423C423 277.004 423 277.006 423 277.005C423 277.004 423 277.003 423.001 277.002L426.823 278.179ZM427 277H431V249.19H427H423V277H427ZM427 242.238H431V214.429H427H423V242.238H427ZM427 158.81H431V131H427H423V158.81H427ZM427 131L431 131C431 130.186 430.877 129.393 430.646 128.643L426.823 129.821L423.001 130.998C423 130.997 423 130.996 423 130.995C423 130.994 423 130.996 423 131H427ZM426.724 129.538L430.448 128.076C430.152 127.323 429.747 126.628 429.253 126.01L426.127 128.506L423.002 131.002C423.003 131.004 423.002 131.003 423.001 131.001L426.724 129.538ZM424.179 127.177L425.357 123.354C424.607 123.123 423.814 123 423 123V127V131C423.004 131 423.006 131 423.005 131C423.004 131 423.003 131 423.002 130.999L424.179 127.177Z" fill="black"/>
<path d="M259 237C259 234.791 257.209 233 255 233L92 233C89.7909 233 88 234.791 88 237L88 286.25L81.0059 286.25C77.927 286.25 76.0027 289.583 77.542 292.25L109.152 347C110.692 349.667 114.54 349.667 116.08 347L147.69 292.25C149.23 289.583 147.305 286.25 144.227 286.25L136 286.25L136 281L255 281C257.209 281 259 279.209 259 277L259 237Z" fill="#E8ACAC"/>
<path d="M259 237L263 237L263 237L259 237ZM255 233L255 229L255 229L255 233ZM92 233L92 229V229L92 233ZM88 237L84 237L84 237L88 237ZM88 286.25L92 286.25C92 287.311 91.5786 288.328 90.8284 289.078C90.0783 289.829 89.0609 290.25 88 290.25L88 286.25ZM81.0059 286.25L81.0055 282.25L81.0059 282.25L81.0059 286.25ZM77.542 292.25L74.0779 294.25L74.0778 294.25L77.542 292.25ZM109.152 347L112.616 345L112.616 345L109.152 347ZM116.08 347L112.616 345L112.616 345L116.08 347ZM147.69 292.25L151.155 294.25L151.155 294.25L147.69 292.25ZM144.227 286.25L144.227 282.25L144.227 282.25L144.227 286.25ZM136 286.25L136 290.25C133.791 290.25 132 288.459 132 286.25L136 286.25ZM136 281L132 281C132 278.791 133.791 277 136 277L136 281ZM255 281L255 285L255 285L255 281ZM259 277L263 277V277L259 277ZM263 240.81C263 243.019 261.209 244.81 259 244.81C256.791 244.81 255 243.019 255 240.81L259 240.81L263 240.81ZM255 242.714C255 240.505 256.791 238.714 259 238.714C261.209 238.714 263 240.505 263 242.714L259 242.714L255 242.714ZM263 257.952C263 260.162 261.209 261.952 259 261.952C256.791 261.952 255 260.162 255 257.952L259 257.952L263 257.952ZM255 273.19C255 270.981 256.791 269.19 259 269.19C261.209 269.19 263 270.981 263 273.19L259 273.19L255 273.19ZM262.912 278.188C262.585 280.373 260.549 281.879 258.364 281.552C256.18 281.226 254.673 279.19 255 277.005L258.956 277.596L262.912 278.188ZM255 277.004C255.49 274.85 257.633 273.5 259.787 273.99C261.941 274.48 263.291 276.623 262.801 278.777L258.901 277.89L255 277.004ZM260.442 282.864C258.823 284.367 256.292 284.273 254.789 282.654C253.286 281.035 253.38 278.504 254.999 277.001L257.721 279.932L260.442 282.864ZM255.005 277C257.19 276.673 259.226 278.18 259.552 280.364C259.879 282.549 258.373 284.585 256.188 284.912L255.596 280.956L255.005 277ZM243.667 285C241.458 285 239.667 283.209 239.667 281C239.667 278.791 241.458 277 243.667 277L243.667 281L243.667 285ZM238 277C240.209 277 242 278.791 242 281C242 283.209 240.209 285 238 285L238 281L238 277ZM192.667 285C190.458 285 188.667 283.209 188.667 281C188.667 278.791 190.458 277 192.667 277L192.667 281L192.667 285ZM147.333 277C149.542 277 151.333 278.791 151.333 281C151.333 283.209 149.542 285 147.333 285L147.333 281L147.333 277ZM140 281.5C140 283.709 138.209 285.5 136 285.5C133.791 285.5 132 283.709 132 281.5L136 281.5L140 281.5ZM132 281.75C132 279.541 133.791 277.75 136 277.75C138.209 277.75 140 279.541 140 281.75L136 281.75L132 281.75ZM140 283.75C140 285.959 138.209 287.75 136 287.75C133.791 287.75 132 285.959 132 283.75L136 283.75L140 283.75ZM132 285.75C132 283.541 133.791 281.75 136 281.75C138.209 281.75 140 283.541 140 285.75L136 285.75L132 285.75ZM136.783 282.25C138.993 282.25 140.783 284.041 140.783 286.25C140.783 288.459 138.993 290.25 136.783 290.25L136.783 286.25L136.783 282.25ZM137.175 290.25C134.966 290.25 133.175 288.459 133.175 286.25C133.175 284.041 134.966 282.25 137.175 282.25L137.175 286.25L137.175 290.25ZM140.309 282.25C142.518 282.25 144.309 284.041 144.309 286.25C144.309 288.459 142.518 290.25 140.309 290.25L140.309 286.25L140.309 282.25ZM143.443 290.25C141.234 290.25 139.443 288.459 139.443 286.25C139.443 284.041 141.234 282.25 143.443 282.25L143.443 286.25L143.443 290.25ZM145.794 282.402C147.961 282.829 149.372 284.932 148.945 287.1C148.518 289.267 146.415 290.678 144.247 290.251L145.02 286.327L145.794 282.402ZM144.243 290.25C142.129 289.607 140.938 287.372 141.581 285.258C142.224 283.145 144.459 281.953 146.573 282.597L145.408 286.423L144.243 290.25ZM151.344 286.597C152.353 288.562 151.579 290.973 149.614 291.983C147.649 292.993 145.238 292.219 144.228 290.254L147.786 288.425L151.344 286.597ZM144.236 290.231C144.95 288.141 147.223 287.025 149.314 287.739C151.404 288.453 152.52 290.727 151.806 292.817L148.021 291.524L144.236 290.231ZM148.144 299.464C147.039 301.377 144.593 302.033 142.68 300.928C140.767 299.824 140.111 297.377 141.216 295.464L144.68 297.464L148.144 299.464ZM139.711 298.071C140.815 296.158 143.262 295.503 145.175 296.607C147.088 297.712 147.743 300.158 146.639 302.071L143.175 300.071L139.711 298.071ZM134.597 322.929C133.492 324.842 131.046 325.497 129.133 324.393C127.219 323.288 126.564 320.842 127.669 318.929L131.133 320.929L134.597 322.929ZM115.626 339.786C116.731 337.873 119.177 337.217 121.091 338.322C123.004 339.426 123.659 341.873 122.555 343.786L119.091 341.786L115.626 339.786ZM118.629 350.281C117.176 351.944 114.649 352.115 112.985 350.662C111.322 349.208 111.151 346.681 112.604 345.018L115.617 347.649L118.629 350.281ZM112.608 345.014C114.221 343.506 116.753 343.591 118.261 345.204C119.77 346.818 119.685 349.349 118.071 350.858L115.34 347.936L112.608 345.014ZM112.221 352.99C110.015 352.882 108.313 351.006 108.421 348.8C108.529 346.593 110.406 344.892 112.612 345L112.417 348.995L112.221 352.99ZM112.628 345.018C114.081 346.681 113.911 349.208 112.247 350.662C110.583 352.115 108.056 351.944 106.603 350.281L109.616 347.649L112.628 345.018ZM102.678 343.786C101.573 341.873 102.229 339.426 104.142 338.322C106.055 337.217 108.501 337.873 109.606 339.786L106.142 341.786L102.678 343.786ZM108.101 337.179C109.205 339.092 108.55 341.538 106.637 342.643C104.723 343.747 102.277 343.092 101.172 341.179L104.637 339.179L108.101 337.179ZM89.1304 320.321C88.0259 318.408 88.6814 315.962 90.5945 314.857C92.5077 313.753 94.9541 314.408 96.0586 316.321L92.5945 318.321L89.1304 320.321ZM84.0166 295.464C85.1212 297.377 84.4657 299.824 82.5525 300.928C80.6394 302.033 78.193 301.377 77.0884 299.464L80.5525 297.464L84.0166 295.464ZM73.4261 292.817C72.7121 290.727 73.828 288.453 75.9186 287.739C78.0091 287.025 80.2827 288.141 80.9967 290.231L77.2114 291.524L73.4261 292.817ZM80.9979 290.236C81.4976 292.388 80.1581 294.537 78.0062 295.037C75.8543 295.536 73.7048 294.197 73.2052 292.045L77.1016 291.14L80.9979 290.236ZM74.2838 285.913C75.4805 284.056 77.9559 283.521 79.8129 284.718C81.6698 285.914 82.2051 288.39 81.0084 290.247L77.6461 288.08L74.2838 285.913ZM80.9853 290.251C78.8178 290.678 76.7145 289.267 76.2875 287.1C75.8605 284.932 77.2714 282.829 79.4388 282.402L80.2121 286.327L80.9853 290.251ZM81.672 282.25C83.8811 282.25 85.672 284.041 85.672 286.25C85.672 288.459 83.8811 290.25 81.672 290.25L81.672 286.25L81.672 282.25ZM82.005 290.25C79.7959 290.25 78.005 288.459 78.005 286.25C78.005 284.041 79.7959 282.25 82.005 282.25L82.005 286.25L82.005 290.25ZM84.6695 282.25C86.8786 282.25 88.6695 284.041 88.6695 286.25C88.6695 288.459 86.8786 290.25 84.6695 290.25L84.6695 286.25L84.6695 282.25ZM87.3339 290.25C85.1248 290.25 83.3339 288.459 83.3339 286.25C83.3339 284.041 85.1248 282.25 87.3339 282.25L87.3339 286.25L87.3339 290.25ZM84 281.56C84 279.35 85.7909 277.56 88 277.56C90.2091 277.56 92 279.35 92 281.56L88 281.56L84 281.56ZM92 279.214C92 281.423 90.2091 283.214 88 283.214C85.7909 283.214 84 281.423 84 279.214L88 279.214L92 279.214ZM84 260.452C84 258.243 85.7909 256.452 88 256.452C90.2091 256.452 92 258.243 92 260.452L88 260.452L84 260.452ZM92 241.69C92 243.9 90.2091 245.69 88 245.69C85.7909 245.69 84 243.9 84 241.69L88 241.69L92 241.69ZM84.0881 235.812C84.4147 233.627 86.4507 232.121 88.6355 232.448C90.8204 232.774 92.3268 234.81 92.0002 236.995L88.0442 236.404L84.0881 235.812ZM92 236.996C91.5102 239.15 89.3669 240.5 87.2127 240.01C85.0586 239.52 83.7093 237.377 84.199 235.223L88.0995 236.11L92 236.996ZM86.558 231.136C88.177 229.633 90.7079 229.727 92.2109 231.346C93.7139 232.965 93.6197 235.496 92.0007 236.999L89.2793 234.068L86.558 231.136ZM91.995 237C89.8101 237.327 87.7742 235.82 87.4476 233.635C87.121 231.451 88.6274 229.415 90.8123 229.088L91.4036 233.044L91.995 237ZM107.524 229C109.733 229 111.524 230.791 111.524 233C111.524 235.209 109.733 237 107.524 237L107.524 233L107.524 229ZM115.286 237C113.077 237 111.286 235.209 111.286 233C111.286 230.791 113.077 229 115.286 229L115.286 233L115.286 237ZM177.381 229C179.59 229 181.381 230.791 181.381 233C181.381 235.209 179.59 237 177.381 237L177.381 233L177.381 229ZM239.476 237C237.267 237 235.476 235.209 235.476 233C235.476 230.791 237.267 229 239.476 229L239.476 233L239.476 237ZM259 237L263 237L263 240.81L259 240.81L255 240.81L255 237L259 237ZM259 242.714L263 242.714L263 257.952L259 257.952L255 257.952L255 242.714L259 242.714ZM259 273.19L263 273.19L263 277L259 277L255 277L255 273.19L259 273.19ZM259 277L263 277C263 277.401 262.97 277.798 262.912 278.188L258.956 277.596L255 277.005C255 277.006 255 277.004 255 277L259 277ZM258.901 277.89L262.801 278.777C262.436 280.381 261.595 281.794 260.442 282.864L257.721 279.932L254.999 277.001C255.001 276.999 255.002 276.997 255.002 276.997C255.002 276.998 255.001 277 255 277.004L258.901 277.89ZM255.596 280.956L256.188 284.912C255.798 284.97 255.401 285 255 285L255 281L255 277C255.004 277 255.006 277 255.005 277L255.596 280.956ZM255 281L255 285L243.667 285L243.667 281L243.667 277L255 277L255 281ZM238 281L238 285L192.667 285L192.667 281L192.667 277L238 277L238 281ZM147.333 281L147.333 285L136 285L136 281L136 277L147.333 277L147.333 281ZM136 281L140 281L140 281.5L136 281.5L132 281.5L132 281L136 281ZM136 281.75L140 281.75L140 283.75L136 283.75L132 283.75L132 281.75L136 281.75ZM136 285.75L140 285.75L140 286.25L136 286.25L132 286.25L132 285.75L136 285.75ZM136 286.25L136 282.25L136.783 282.25L136.783 286.25L136.783 290.25L136 290.25L136 286.25ZM137.175 286.25L137.175 282.25L140.309 282.25L140.309 286.25L140.309 290.25L137.175 290.25L137.175 286.25ZM143.443 286.25L143.443 282.25L144.227 282.25L144.227 286.25L144.227 290.25L143.443 290.25L143.443 286.25ZM144.227 286.25L144.227 282.25C144.759 282.25 145.283 282.302 145.794 282.402L145.02 286.327L144.247 290.251C144.248 290.251 144.246 290.251 144.243 290.251C144.24 290.25 144.235 290.25 144.226 290.25L144.227 286.25ZM145.408 286.423L146.573 282.597C148.729 283.253 150.4 284.76 151.344 286.597L147.786 288.425L144.228 290.254C144.226 290.249 144.223 290.244 144.22 290.241C144.217 290.238 144.216 290.236 144.216 290.237C144.217 290.237 144.22 290.24 144.225 290.243C144.231 290.246 144.237 290.248 144.243 290.25L145.408 286.423ZM148.021 291.524L151.806 292.817C151.638 293.309 151.421 293.789 151.155 294.25L147.69 292.25L144.226 290.25C144.23 290.243 144.233 290.238 144.234 290.235C144.235 290.232 144.236 290.231 144.236 290.231L148.021 291.524ZM147.69 292.25L151.155 294.25L148.144 299.464L144.68 297.464L141.216 295.464L144.226 290.25L147.69 292.25ZM143.175 300.071L146.639 302.071L134.597 322.929L131.133 320.929L127.669 318.929L139.711 298.071L143.175 300.071ZM119.091 341.786L122.555 343.786L119.544 349L116.08 347L112.616 345L115.626 339.786L119.091 341.786ZM116.08 347L119.544 349C119.278 349.461 118.971 349.889 118.629 350.281L115.617 347.649L112.604 345.018C112.604 345.018 112.605 345.017 112.607 345.015C112.609 345.012 112.612 345.007 112.616 345L116.08 347ZM115.34 347.936L118.071 350.858C116.424 352.398 114.284 353.091 112.221 352.99L112.417 348.995L112.612 345C112.618 345 112.623 345 112.627 344.999C112.631 344.999 112.633 344.998 112.632 344.998C112.632 344.998 112.628 345 112.623 345.003C112.617 345.006 112.612 345.01 112.608 345.014L115.34 347.936ZM109.616 347.649L106.603 350.281C106.261 349.889 105.954 349.461 105.688 349L109.152 347L112.616 345C112.621 345.007 112.624 345.012 112.626 345.015C112.628 345.017 112.628 345.018 112.628 345.018L109.616 347.649ZM109.152 347L105.688 349L102.678 343.786L106.142 341.786L109.606 339.786L112.616 345L109.152 347ZM104.637 339.179L101.172 341.179L89.1304 320.321L92.5945 318.321L96.0586 316.321L108.101 337.179L104.637 339.179ZM80.5525 297.464L77.0884 299.464L74.0779 294.25L77.542 292.25L81.0061 290.25L84.0166 295.464L80.5525 297.464ZM77.542 292.25L74.0778 294.25C73.8116 293.789 73.5942 293.309 73.4261 292.817L77.2114 291.524L80.9967 290.231C80.9966 290.231 80.9969 290.232 80.9982 290.235C80.9995 290.238 81.002 290.243 81.0062 290.25L77.542 292.25ZM77.1016 291.14L73.2052 292.045C72.6953 289.849 73.165 287.649 74.2838 285.913L77.6461 288.08L81.0084 290.247C81.0054 290.251 81.003 290.256 81.0014 290.26C80.9998 290.264 80.9995 290.266 80.9996 290.265C80.9998 290.264 81.0004 290.261 81.0002 290.255C81.0001 290.248 80.9993 290.242 80.9979 290.236L77.1016 291.14ZM80.2121 286.327L79.4388 282.402C79.9491 282.302 80.4731 282.25 81.0055 282.25L81.0059 286.25L81.0063 290.25C80.9978 290.25 80.9922 290.25 80.9891 290.251C80.986 290.251 80.9848 290.251 80.9853 290.251L80.2121 286.327ZM81.0059 286.25L81.0059 282.25L81.672 282.25L81.672 286.25L81.672 290.25L81.0059 290.25L81.0059 286.25ZM82.005 286.25L82.005 282.25L84.6695 282.25L84.6695 286.25L84.6695 290.25L82.005 290.25L82.005 286.25ZM87.3339 286.25L87.3339 282.25L88 282.25L88 286.25L88 290.25L87.3339 290.25L87.3339 286.25ZM88 286.25L84 286.25L84 281.56L88 281.56L92 281.56L92 286.25L88 286.25ZM88 279.214L84 279.214L84 260.452L88 260.452L92 260.452L92 279.214L88 279.214ZM88 241.69L84 241.69L84 237L88 237L92 237L92 241.69L88 241.69ZM88 237L84 237C84 236.599 84.0299 236.202 84.0881 235.812L88.0442 236.404L92.0002 236.995C92.0003 236.994 92 236.996 92 237L88 237ZM88.0995 236.11L84.199 235.223C84.5636 233.619 85.4054 232.206 86.558 231.136L89.2793 234.068L92.0007 236.999C91.9985 237.001 91.9975 237.003 91.9975 237.003C91.9979 237.002 91.9992 237 92 236.996L88.0995 236.11ZM91.4036 233.044L90.8123 229.088C91.202 229.03 91.5988 229 92 229L92 233L92 237C91.9959 237 91.9945 237 91.995 237L91.4036 233.044ZM92 233L92 229L107.524 229L107.524 233L107.524 237L92 237L92 233ZM115.286 233L115.286 229L177.381 229L177.381 233L177.381 237L115.286 237L115.286 233ZM239.476 233L239.476 229L255 229L255 233L255 237L239.476 237L239.476 233ZM255 233L255 229C259.418 229 263 232.582 263 237L259 237L255 237L255 237L255 233Z" fill="black"/>
<circle cx="109" cy="109" r="85" fill="#13AF8B" stroke="black" stroke-width="4"/>
<circle cx="403" cy="109" r="50" fill="#14A080" stroke="black" stroke-width="4"/>
<circle cx="109" cy="403" r="50" fill="#A1A2A2" stroke="black" stroke-width="4"/>
<path d="M403 318L430.979 364.491L483.84 376.734L448.27 417.709L452.962 471.766L403 450.6L353.038 471.766L357.73 417.709L322.16 376.734L375.021 364.491L403 318Z" fill="#FFBE4F" stroke="black" stroke-width="4" stroke-linejoin="round"/>
<circle cx="256.5" cy="256.5" r="18" fill="#A9CEC6" stroke="black" stroke-width="4"/>
<circle cx="256.5" cy="256.5" r="37.5" stroke="#A9CEC6" stroke-width="4"/>
<path d="M257 150C270.807 150 282 161.193 282 175C282 180.264 280.371 185.146 277.593 189.175L256.942 229.5L236.355 189.102C233.608 185.087 232 180.232 232 175C232 161.193 243.193 150 257 150Z" fill="#EB1F41"/>
<path d="M257 150L257 148H257V150ZM277.593 189.175L275.946 188.039L275.872 188.147L275.813 188.263L277.593 189.175ZM256.942 229.5L255.16 230.408L256.938 233.896L258.723 230.412L256.942 229.5ZM236.355 189.102L238.137 188.193L238.079 188.078L238.006 187.972L236.355 189.102ZM257 150L257 152C269.702 152 280 162.297 280 175H282H284C284 160.088 271.912 148 257 148L257 150ZM282 175H280C280 179.845 278.502 184.333 275.946 188.039L277.593 189.175L279.239 190.31C282.24 185.959 284 180.683 284 175H282ZM277.593 189.175L275.813 188.263L255.162 228.588L256.942 229.5L258.723 230.412L279.373 190.086L277.593 189.175ZM256.942 229.5L258.724 228.592L238.137 188.193L236.355 189.102L234.574 190.01L255.16 230.408L256.942 229.5ZM236.355 189.102L238.006 187.972C235.479 184.279 234 179.816 234 175H232H230C230 180.648 231.737 185.895 234.705 190.231L236.355 189.102ZM232 175H234C234 162.297 244.298 152 257 152V150V148C242.088 148 230 160.088 230 175H232Z" fill="black"/>
<ellipse cx="257" cy="175" rx="15.9999" ry="16" fill="white"/>
</svg>
