<svg width="20" height="20" viewBox="0 0 20 20" fill="none" xmlns="http://www.w3.org/2000/svg">
  <circle cx="3.5" cy="3.5" r="3.5" fill="#13AF8B"/>
  <path d="M17.8438 2C17.93 2 17.9999 2.07005 18 2.15625V11.8438C17.9999 11.9299 17.93 12 17.8438 12H5V15H7.75V13.7393C7.75019 13.6192 7.88033 13.5437 7.98438 13.6035L12.7656 16.3643C12.8697 16.4244 12.8696 16.5745 12.7656 16.6348L7.98438 19.3955C7.88021 19.4556 7.75 19.38 7.75 19.2598V18H2.15625C2.07003 18 2.00012 17.9299 2 17.8438V9.15625C2.00011 9.07005 2.07002 9 2.15625 9H15V5H7.74219C7.90814 4.53068 8 4.02616 8 3.5C8 2.97384 7.90814 2.46932 7.74219 2H17.8438Z" fill="#848894"/>
  <path d="M16.8203 14L17.9132 15.816L19.9781 16.2943L18.5887 17.8949L18.7719 20.0065L16.8203 19.1797L14.8687 20.0065L15.0519 17.8949L13.6625 16.2943L15.7274 15.816L16.8203 14Z" fill="#FFBE4F"/>
</svg>
