<svg width="40" height="40" viewBox="0 0 40 40" fill="none" xmlns="http://www.w3.org/2000/svg">
<path d="M22.0508 4.72056C22.0509 4.60039 22.181 4.52569 22.2852 4.58579L27.0312 7.32603C27.1352 7.38624 27.1354 7.53643 27.0312 7.59654L22.2852 10.3368C22.181 10.3967 22.0508 10.3212 22.0508 10.201V9.37486H6.32812C6.15554 9.37486 6.01562 9.23495 6.01562 9.06236V5.93736C6.01569 5.76482 6.15558 5.62486 6.32812 5.62486H22.0508V4.72056Z" fill="#E8ACAC"/>
<path d="M22.0508 4.72056L21.7383 4.72019V4.72056H22.0508ZM22.2852 4.58579L22.4414 4.31516L22.4414 4.31516L22.2852 4.58579ZM27.0312 7.32603L27.1878 7.0556L27.1875 7.0554L27.0312 7.32603ZM27.0312 7.59654L26.875 7.3259L26.875 7.32591L27.0312 7.59654ZM22.2852 10.3368L22.4411 10.6076L22.4414 10.6074L22.2852 10.3368ZM22.0508 10.201H22.3633V10.201H22.0508ZM22.0508 9.37486H22.3633C22.3633 9.20227 22.2234 9.06236 22.0508 9.06236V9.37486ZM6.01562 5.93736L5.70312 5.93724V5.93736H6.01562ZM22.0508 5.62486V5.93736C22.2234 5.93736 22.3633 5.79745 22.3633 5.62486H22.0508ZM21.7383 4.80668C21.7383 4.97927 21.8782 5.11918 22.0508 5.11918C22.2234 5.11918 22.3633 4.97927 22.3633 4.80668H22.0508H21.7383ZM22.3633 4.84974C22.3633 4.67716 22.2234 4.53724 22.0508 4.53724C21.8782 4.53724 21.7383 4.67716 21.7383 4.84974H22.0508H22.3633ZM21.7383 5.19424C21.7383 5.36683 21.8782 5.50674 22.0508 5.50674C22.2234 5.50674 22.3633 5.36683 22.3633 5.19424H22.0508H21.7383ZM22.3633 5.53873C22.3633 5.36614 22.2234 5.22623 22.0508 5.22623C21.8782 5.22623 21.7383 5.36614 21.7383 5.53873H22.0508H22.3633ZM20.5534 5.31236C20.3808 5.31236 20.2409 5.45227 20.2409 5.62486C20.2409 5.79745 20.3808 5.93736 20.5534 5.93736V5.62486V5.31236ZM19.8047 5.93736C19.9773 5.93736 20.1172 5.79745 20.1172 5.62486C20.1172 5.45227 19.9773 5.31236 19.8047 5.31236V5.62486V5.93736ZM13.8151 5.31236C13.6425 5.31236 13.5026 5.45227 13.5026 5.62486C13.5026 5.79745 13.6425 5.93736 13.8151 5.93736V5.62486V5.31236ZM7.82552 5.93736C7.99811 5.93736 8.13802 5.79745 8.13802 5.62486C8.13802 5.45227 7.99811 5.31236 7.82552 5.31236V5.62486V5.93736ZM6.23531 5.31925C6.06462 5.34478 5.94694 5.50385 5.97248 5.67454C5.99801 5.84523 6.15708 5.9629 6.32777 5.93737L6.28154 5.62831L6.23531 5.31925ZM6.32789 5.93735C6.49617 5.89906 6.60156 5.7316 6.56328 5.56331C6.52499 5.39502 6.35753 5.28963 6.18924 5.32792L6.25856 5.63263L6.32789 5.93735ZM5.87003 5.51224C5.75262 5.63874 5.75999 5.83647 5.8865 5.95388C6.013 6.07129 6.21072 6.06391 6.32813 5.93741L6.09908 5.72483L5.87003 5.51224ZM6.32814 5.93708C6.35372 5.7664 6.23608 5.6073 6.0654 5.58172C5.89472 5.55615 5.73562 5.67378 5.71004 5.84446L6.01909 5.89077L6.32814 5.93708ZM5.70312 6.23498C5.70312 6.40756 5.84304 6.54748 6.01562 6.54748C6.18821 6.54748 6.32812 6.40756 6.32812 6.23498H6.01562H5.70312ZM6.32812 6.38378C6.32812 6.2112 6.18821 6.07128 6.01562 6.07128C5.84304 6.07128 5.70312 6.2112 5.70312 6.38378H6.01562H6.32812ZM5.70312 7.57426C5.70312 7.74685 5.84304 7.88676 6.01562 7.88676C6.18821 7.88676 6.32812 7.74685 6.32812 7.57426H6.01562H5.70312ZM6.32812 8.76474C6.32812 8.59215 6.18821 8.45224 6.01562 8.45224C5.84304 8.45224 5.70312 8.59215 5.70312 8.76474H6.01562H6.32812ZM5.71001 9.15515C5.73552 9.32584 5.89458 9.44353 6.06527 9.41801C6.23597 9.3925 6.35366 9.23344 6.32814 9.06275L6.01907 9.10895L5.71001 9.15515ZM6.32812 9.06265C6.28986 8.89435 6.12241 8.78894 5.95412 8.8272C5.78582 8.86546 5.68041 9.03291 5.71867 9.2012L6.0234 9.13193L6.32812 9.06265ZM5.90296 9.52047C6.02945 9.63789 6.22718 9.63053 6.3446 9.50404C6.46202 9.37755 6.45467 9.17983 6.32818 9.06241L6.11557 9.29144L5.90296 9.52047ZM6.32773 9.06234C6.15704 9.03683 5.99798 9.15452 5.97247 9.32521C5.94695 9.4959 6.06464 9.65496 6.23534 9.68047L6.28153 9.37141L6.32773 9.06234ZM7.82552 9.68736C7.99811 9.68736 8.13802 9.54745 8.13802 9.37486C8.13802 9.20227 7.99811 9.06236 7.82552 9.06236V9.37486V9.68736ZM8.57422 9.06236C8.40163 9.06236 8.26172 9.20227 8.26172 9.37486C8.26172 9.54745 8.40163 9.68736 8.57422 9.68736V9.37486V9.06236ZM14.5638 9.68736C14.7364 9.68736 14.8763 9.54745 14.8763 9.37486C14.8763 9.20227 14.7364 9.06236 14.5638 9.06236V9.37486V9.68736ZM20.5534 9.06236C20.3808 9.06236 20.2409 9.20227 20.2409 9.37486C20.2409 9.54745 20.3808 9.68736 20.5534 9.68736V9.37486V9.06236ZM21.7383 9.45354C21.7383 9.62613 21.8782 9.76604 22.0508 9.76604C22.2234 9.76604 22.3633 9.62613 22.3633 9.45354H22.0508H21.7383ZM22.3633 9.49288C22.3633 9.32029 22.2234 9.18038 22.0508 9.18038C21.8782 9.18038 21.7383 9.32029 21.7383 9.49288H22.0508H22.3633ZM21.7383 9.80761C21.7383 9.9802 21.8782 10.1201 22.0508 10.1201C22.2234 10.1201 22.3633 9.9802 22.3633 9.80761H22.0508H21.7383ZM22.3633 10.1223C22.3633 9.94976 22.2234 9.80985 22.0508 9.80985C21.8782 9.80985 21.7383 9.94976 21.7383 10.1223H22.0508H22.3633ZM21.7472 10.2925C21.7805 10.4618 21.9449 10.572 22.1142 10.5387C22.2835 10.5053 22.3937 10.341 22.3604 10.1716L22.0538 10.232L21.7472 10.2925ZM22.3565 10.1562C22.3062 9.99106 22.1317 9.89796 21.9665 9.94822C21.8014 9.99849 21.7083 10.1731 21.7586 10.3382L22.0576 10.2472L22.3565 10.1562ZM21.9923 10.6179C22.1457 10.697 22.3342 10.6369 22.4134 10.4836C22.4926 10.3302 22.4324 10.1417 22.2791 10.0625L22.1357 10.3402L21.9923 10.6179ZM22.1563 10.0537C21.9929 10.1092 21.9054 10.2867 21.9609 10.4501C22.0164 10.6136 22.1938 10.701 22.3573 10.6455L22.2568 10.3496L22.1563 10.0537ZM22.8934 10.3464C23.0429 10.2601 23.0941 10.069 23.0078 9.91954C22.9215 9.77008 22.7304 9.71887 22.5809 9.80516L22.7372 10.0758L22.8934 10.3464ZM22.8069 9.67468C22.6575 9.76097 22.6062 9.9521 22.6925 10.1016C22.7788 10.251 22.97 10.3022 23.1194 10.2159L22.9632 9.94531L22.8069 9.67468ZM24.9275 9.17204C25.0769 9.08574 25.1281 8.89462 25.0418 8.74516C24.9555 8.59569 24.7644 8.54448 24.615 8.63078L24.7712 8.90141L24.9275 9.17204ZM26.423 7.58688C26.2735 7.67318 26.2223 7.8643 26.3086 8.01376C26.3949 8.16323 26.586 8.21444 26.7355 8.12814L26.5792 7.85751L26.423 7.58688ZM27.2622 7.81379C27.3922 7.70024 27.4055 7.50283 27.2919 7.37285C27.1784 7.24288 26.981 7.22956 26.851 7.34311L27.0566 7.57845L27.2622 7.81379ZM26.8395 7.35423C26.7216 7.48031 26.7283 7.67806 26.8544 7.79592C26.9805 7.91377 27.1782 7.9071 27.2961 7.78102L27.0678 7.56762L26.8395 7.35423ZM27.4212 7.43812C27.4127 7.26574 27.2661 7.13289 27.0937 7.14139C26.9213 7.1499 26.7885 7.29653 26.797 7.46891L27.1091 7.45351L27.4212 7.43812ZM26.8507 7.57928C26.9806 7.69295 27.178 7.67983 27.2917 7.54997C27.4054 7.42011 27.3923 7.22268 27.2624 7.109L27.0566 7.34414L26.8507 7.57928ZM26.7355 6.79442C26.586 6.70813 26.3949 6.75933 26.3086 6.9088C26.2223 7.05827 26.2735 7.24939 26.423 7.33568L26.5792 7.06505L26.7355 6.79442ZM26.197 7.2052C26.3464 7.29149 26.5376 7.24028 26.6239 7.09082C26.7102 6.94135 26.659 6.75023 26.5095 6.66394L26.3532 6.93457L26.197 7.2052ZM24.7015 5.62004C24.552 5.53374 24.3609 5.58495 24.2746 5.73441C24.1883 5.88388 24.2395 6.075 24.3889 6.1613L24.5452 5.89067L24.7015 5.62004ZM22.5809 5.1174C22.7304 5.2037 22.9215 5.15249 23.0078 5.00302C23.0941 4.85356 23.0429 4.66243 22.8934 4.57614L22.7372 4.84677L22.5809 5.1174ZM22.3581 4.27723C22.1948 4.22132 22.0171 4.30837 21.9612 4.47165C21.9053 4.63493 21.9923 4.81262 22.1556 4.86853L22.2568 4.57288L22.3581 4.27723ZM22.1708 4.8729C22.3389 4.91213 22.507 4.80768 22.5462 4.6396C22.5854 4.47153 22.481 4.30348 22.3129 4.26426L22.2419 4.56858L22.1708 4.8729ZM21.9537 4.32651C21.8084 4.41966 21.7662 4.61295 21.8593 4.75825C21.9525 4.90354 22.1458 4.94581 22.291 4.85266L22.1224 4.58958L21.9537 4.32651ZM22.3603 4.75033C22.3939 4.58103 22.2838 4.41659 22.1145 4.38305C21.9452 4.3495 21.7808 4.45955 21.7473 4.62884L22.0538 4.68959L22.3603 4.75033ZM22.0508 4.72056H21.7383V4.80668H22.0508H22.3633V4.72056H22.0508ZM22.0508 4.84974H21.7383V5.19424H22.0508H22.3633V4.84974H22.0508ZM22.0508 5.53873H21.7383V5.62486H22.0508H22.3633V5.53873H22.0508ZM22.0508 5.62486V5.31236H20.5534V5.62486V5.93736H22.0508V5.62486ZM19.8047 5.62486V5.31236H13.8151V5.62486V5.93736H19.8047V5.62486ZM7.82552 5.62486V5.31236H6.32812V5.62486V5.93736H7.82552V5.62486ZM6.32812 5.62486V5.31236C6.29677 5.31236 6.26576 5.31469 6.23531 5.31925L6.28154 5.62831L6.32777 5.93737L6.32812 5.93736V5.62486ZM6.25856 5.63263L6.18924 5.32792C6.06396 5.35642 5.95358 5.42222 5.87003 5.51224L6.09908 5.72483L6.32813 5.93741L6.32789 5.93735L6.25856 5.63263ZM6.01909 5.89077L5.71004 5.84446C5.70548 5.8749 5.70314 5.90589 5.70313 5.93724L6.01562 5.93736L6.32812 5.93748L6.32814 5.93708L6.01909 5.89077ZM6.01562 5.93736H5.70312V6.23498H6.01562H6.32812V5.93736H6.01562ZM6.01562 6.38378H5.70312V7.57426H6.01562H6.32812V6.38378H6.01562ZM6.01562 8.76474H5.70312V9.06236H6.01562H6.32812V8.76474H6.01562ZM6.01562 9.06236H5.70312C5.70312 9.0937 5.70546 9.1247 5.71001 9.15515L6.01907 9.10895L6.32814 9.06275L6.32812 9.06236H6.01562ZM6.0234 9.13193L5.71867 9.2012C5.74715 9.32647 5.81292 9.43688 5.90296 9.52047L6.11557 9.29144L6.32818 9.06241L6.32812 9.06265L6.0234 9.13193ZM6.28153 9.37141L6.23534 9.68047C6.26578 9.68502 6.29678 9.68736 6.32812 9.68736V9.37486V9.06236L6.32773 9.06234L6.28153 9.37141ZM6.32812 9.37486V9.68736H7.82552V9.37486V9.06236H6.32812V9.37486ZM8.57422 9.37486V9.68736H14.5638V9.37486V9.06236H8.57422V9.37486ZM20.5534 9.37486V9.68736H22.0508V9.37486V9.06236H20.5534V9.37486ZM22.0508 9.37486H21.7383V9.45354H22.0508H22.3633V9.37486H22.0508ZM22.0508 9.49288H21.7383V9.80761H22.0508H22.3633V9.49288H22.0508ZM22.0508 10.1223H21.7383V10.201H22.0508H22.3633V10.1223H22.0508ZM22.0508 10.201H21.7383C21.7383 10.2319 21.7413 10.2625 21.7472 10.2925L22.0538 10.232L22.3604 10.1716C22.3624 10.1817 22.3633 10.1916 22.3633 10.201H22.0508ZM22.0576 10.2472L21.7586 10.3382C21.7972 10.4651 21.8856 10.5627 21.9923 10.6179L22.1357 10.3402L22.2791 10.0625C22.313 10.08 22.3431 10.1121 22.3565 10.1562L22.0576 10.2472ZM22.2568 10.3496L22.3573 10.6455C22.3862 10.6357 22.4143 10.623 22.4411 10.6076L22.2852 10.3368L22.1292 10.066C22.1375 10.0612 22.1465 10.0571 22.1563 10.0537L22.2568 10.3496ZM22.2852 10.3368L22.4414 10.6074L22.8934 10.3464L22.7372 10.0758L22.5809 9.80516L22.1289 10.0661L22.2852 10.3368ZM22.9632 9.94531L23.1194 10.2159L24.9275 9.17204L24.7712 8.90141L24.615 8.63078L22.8069 9.67468L22.9632 9.94531ZM26.5792 7.85751L26.7355 8.12814L27.1875 7.86717L27.0312 7.59654L26.875 7.32591L26.423 7.58688L26.5792 7.85751ZM27.0312 7.59654L27.1875 7.86717C27.2142 7.85173 27.2392 7.83386 27.2622 7.81379L27.0566 7.57845L26.851 7.34311C26.8587 7.33636 26.8668 7.33063 26.875 7.3259L27.0312 7.59654ZM27.0678 7.56762L27.2961 7.78102C27.3868 7.68393 27.4271 7.5583 27.4212 7.43812L27.1091 7.45351L26.797 7.46891C26.7951 7.43055 26.8078 7.38809 26.8395 7.35423L27.0678 7.56762ZM27.0566 7.34414L27.2624 7.109C27.2395 7.08894 27.2145 7.07105 27.1878 7.0556L27.0312 7.32603L26.8747 7.59646C26.8665 7.59173 26.8584 7.58601 26.8507 7.57928L27.0566 7.34414ZM27.0312 7.32603L27.1875 7.0554L26.7355 6.79442L26.5792 7.06505L26.423 7.33568L26.875 7.59666L27.0312 7.32603ZM26.3532 6.93457L26.5095 6.66394L24.7015 5.62004L24.5452 5.89067L24.3889 6.1613L26.197 7.2052L26.3532 6.93457ZM22.7372 4.84677L22.8934 4.57614L22.4414 4.31516L22.2852 4.58579L22.1289 4.85642L22.5809 5.1174L22.7372 4.84677ZM22.2852 4.58579L22.4414 4.31516C22.4147 4.29977 22.3868 4.28709 22.3581 4.27723L22.2568 4.57288L22.1556 4.86853C22.146 4.86523 22.137 4.86112 22.1289 4.85643L22.2852 4.58579ZM22.2419 4.56858L22.3129 4.26426C22.1838 4.23414 22.055 4.26155 21.9537 4.32651L22.1224 4.58958L22.291 4.85266C22.2586 4.87345 22.2156 4.88335 22.1708 4.8729L22.2419 4.56858ZM22.0538 4.68959L21.7473 4.62884C21.7413 4.65876 21.7383 4.68933 21.7383 4.72019L22.0508 4.72056L22.3633 4.72093C22.3633 4.73038 22.3623 4.74026 22.3603 4.75033L22.0538 4.68959Z" fill="black"/>
<path d="M20.332 28.8282C20.3322 28.708 20.4623 28.6333 20.5664 28.6934L25.3125 31.4336C25.4165 31.4938 25.4166 31.644 25.3125 31.7041L20.5664 34.4444C20.4623 34.5044 20.332 34.4289 20.332 34.3086V33.5157H11.3281C11.1555 33.5157 11.0156 33.3757 11.0156 33.2032V30.0782C11.0156 29.9056 11.1555 29.7657 11.3281 29.7657H20.332V28.8282Z" fill="#E8ACAC"/>
<path d="M20.332 28.8282L20.0195 28.8276V28.8282H20.332ZM20.5664 28.6934L20.7227 28.4228L20.7227 28.4228L20.5664 28.6934ZM25.3125 31.4336L25.469 31.1632L25.4688 31.163L25.3125 31.4336ZM25.3125 31.7041L25.1562 31.4335L25.1562 31.4335L25.3125 31.7041ZM20.5664 34.4444L20.7224 34.7151L20.7227 34.715L20.5664 34.4444ZM20.332 34.3086H20.6445V34.3086H20.332ZM20.332 33.5157H20.6445C20.6445 33.3431 20.5046 33.2032 20.332 33.2032V33.5157ZM11.0156 33.2032H10.7031V33.2032H11.0156ZM11.3281 29.7657V29.4532V29.7657ZM20.332 29.7657V30.0782C20.5046 30.0782 20.6445 29.9382 20.6445 29.7657H20.332ZM20.0195 29.0067C20.0195 29.1793 20.1594 29.3192 20.332 29.3192C20.5046 29.3192 20.6445 29.1793 20.6445 29.0067H20.332H20.0195ZM20.6445 29.0514C20.6445 28.8788 20.5046 28.7389 20.332 28.7389C20.1594 28.7389 20.0195 28.8788 20.0195 29.0514H20.332H20.6445ZM20.0195 29.2299C20.0195 29.4025 20.1594 29.5424 20.332 29.5424C20.5046 29.5424 20.6445 29.4025 20.6445 29.2299H20.332H20.0195ZM20.6445 29.5871C20.6445 29.4145 20.5046 29.2746 20.332 29.2746C20.1594 29.2746 20.0195 29.4145 20.0195 29.5871H20.332H20.6445ZM18.617 29.4532C18.4444 29.4532 18.3045 29.5931 18.3045 29.7657C18.3045 29.9382 18.4444 30.0782 18.617 30.0782V29.7657V29.4532ZM18.1882 30.0782C18.3608 30.0782 18.5007 29.9382 18.5007 29.7657C18.5007 29.5931 18.3608 29.4532 18.1882 29.4532V29.7657V30.0782ZM16.4732 29.4532C16.3006 29.4532 16.1607 29.5931 16.1607 29.7657C16.1607 29.9382 16.3006 30.0782 16.4732 30.0782V29.7657V29.4532ZM13.0432 30.0782C13.2157 30.0782 13.3557 29.9382 13.3557 29.7657C13.3557 29.5931 13.2157 29.4532 13.0432 29.4532V29.7657V30.0782ZM11.144 29.4808C10.979 29.5316 10.8865 29.7065 10.9373 29.8715C10.9882 30.0364 11.1631 30.1289 11.328 30.0781L11.236 29.7795L11.144 29.4808ZM11.3282 30.078C11.4888 30.0149 11.5679 29.8336 11.5048 29.6729C11.4417 29.5123 11.2603 29.4332 11.0997 29.4963L11.2139 29.7872L11.3282 30.078ZM10.9383 29.5896C10.8034 29.6973 10.7814 29.8939 10.8891 30.0288C10.9968 30.1637 11.1934 30.1857 11.3283 30.078L11.1333 29.8338L10.9383 29.5896ZM11.3281 30.078C11.3789 29.9131 11.2864 29.7382 11.1214 29.6874C10.9565 29.6365 10.7816 29.7291 10.7308 29.894L11.0294 29.986L11.3281 30.078ZM10.7031 30.6734C10.7031 30.846 10.843 30.9859 11.0156 30.9859C11.1882 30.9859 11.3281 30.846 11.3281 30.6734H11.0156H10.7031ZM11.3281 30.8222C11.3281 30.6496 11.1882 30.5097 11.0156 30.5097C10.843 30.5097 10.7031 30.6496 10.7031 30.8222H11.0156H11.3281ZM10.7031 31.4174C10.7031 31.59 10.843 31.7299 11.0156 31.7299C11.1882 31.7299 11.3281 31.59 11.3281 31.4174H11.0156H10.7031ZM11.3281 32.6079C11.3281 32.4353 11.1882 32.2954 11.0156 32.2954C10.843 32.2954 10.7031 32.4353 10.7031 32.6079H11.0156H11.3281ZM10.7308 33.3873C10.7816 33.5522 10.9565 33.6448 11.1214 33.5939C11.2864 33.5431 11.3789 33.3682 11.3281 33.2033L11.0294 33.2953L10.7308 33.3873ZM11.328 33.2031C11.2649 33.0425 11.0835 32.9634 10.9229 33.0265C10.7623 33.0896 10.6832 33.271 10.7463 33.4316L11.0372 33.3174L11.328 33.2031ZM10.8396 33.593C10.9473 33.7279 11.1439 33.7499 11.2788 33.6422C11.4137 33.5345 11.4357 33.3379 11.328 33.203L11.0838 33.398L10.8396 33.593ZM11.328 33.2032C11.1631 33.1524 10.9882 33.2449 10.9373 33.4098C10.8865 33.5748 10.979 33.7497 11.144 33.8005L11.236 33.5018L11.328 33.2032ZM13.0432 33.8282C13.2157 33.8282 13.3557 33.6882 13.3557 33.5157C13.3557 33.3431 13.2157 33.2032 13.0432 33.2032V33.5157V33.8282ZM13.4719 33.2032C13.2993 33.2032 13.1594 33.3431 13.1594 33.5157C13.1594 33.6882 13.2993 33.8282 13.4719 33.8282V33.5157V33.2032ZM15.1869 33.8282C15.3595 33.8282 15.4994 33.6882 15.4994 33.5157C15.4994 33.3431 15.3595 33.2032 15.1869 33.2032V33.5157V33.8282ZM18.617 33.2032C18.4444 33.2032 18.3045 33.3431 18.3045 33.5157C18.3045 33.6882 18.4444 33.8282 18.617 33.8282V33.5157V33.2032ZM20.0195 33.6667C20.0195 33.8393 20.1594 33.9792 20.332 33.9792C20.5046 33.9792 20.6445 33.8393 20.6445 33.6667H20.332H20.0195ZM20.6445 33.7045C20.6445 33.5319 20.5046 33.392 20.332 33.392C20.1594 33.392 20.0195 33.5319 20.0195 33.7045H20.332H20.6445ZM20.0195 33.8555C20.0195 34.0281 20.1594 34.168 20.332 34.168C20.5046 34.168 20.6445 34.0281 20.6445 33.8555H20.332H20.0195ZM20.6445 34.1576C20.6445 33.985 20.5046 33.8451 20.332 33.8451C20.1594 33.8451 20.0195 33.985 20.0195 34.1576H20.332H20.6445ZM20.0559 34.4904C20.1227 34.6495 20.3059 34.7244 20.465 34.6576C20.6242 34.5908 20.699 34.4077 20.6323 34.2485L20.3441 34.3694L20.0559 34.4904ZM20.6252 34.2339C20.5426 34.0823 20.3527 34.0265 20.2012 34.1091C20.0497 34.1918 19.9939 34.3816 20.0765 34.5331L20.3509 34.3835L20.6252 34.2339ZM20.1963 34.6754C20.3313 34.7829 20.5279 34.7605 20.6354 34.6254C20.7428 34.4904 20.7204 34.2938 20.5854 34.1863L20.3908 34.4309L20.1963 34.6754ZM20.469 34.1541C20.2977 34.1755 20.1762 34.3316 20.1976 34.5029C20.2189 34.6742 20.3751 34.7957 20.5464 34.7743L20.5077 34.4642L20.469 34.1541ZM21.6267 34.193C21.7761 34.1068 21.8274 33.9156 21.7411 33.7662C21.6548 33.6167 21.4636 33.5655 21.3142 33.6518L21.4704 33.9224L21.6267 34.193ZM21.5402 33.5213C21.3907 33.6076 21.3395 33.7987 21.4258 33.9482C21.5121 34.0976 21.7032 34.1489 21.8527 34.0626L21.6964 33.7919L21.5402 33.5213ZM22.7567 33.5406C22.9062 33.4543 22.9574 33.2632 22.8711 33.1137C22.7848 32.9643 22.5937 32.9131 22.4442 32.9993L22.6004 33.27L22.7567 33.5406ZM24.2522 31.9554C24.1028 32.0417 24.0516 32.2329 24.1379 32.3823C24.2241 32.5318 24.4153 32.583 24.5647 32.4967L24.4085 32.2261L24.2522 31.9554ZM25.6079 31.8524C25.7123 31.7149 25.6856 31.5189 25.5481 31.4145C25.4107 31.3101 25.2147 31.3368 25.1103 31.4743L25.3591 31.6633L25.6079 31.8524ZM25.101 31.4878C25.0112 31.6352 25.0579 31.8275 25.2052 31.9173C25.3526 32.0071 25.5449 31.9605 25.6347 31.8131L25.3679 31.6504L25.101 31.4878ZM25.698 31.6378C25.7232 31.4671 25.6052 31.3082 25.4345 31.283C25.2637 31.2578 25.1049 31.3758 25.0797 31.5466L25.3888 31.5922L25.698 31.6378ZM25.1102 31.6634C25.2145 31.8009 25.4105 31.8277 25.548 31.7234C25.6855 31.619 25.7123 31.423 25.608 31.2855L25.3591 31.4745L25.1102 31.6634ZM24.5647 30.641C24.4153 30.5547 24.2241 30.606 24.1379 30.7554C24.0516 30.9049 24.1028 31.096 24.2522 31.1823L24.4085 30.9117L24.5647 30.641ZM24.0262 31.0518C24.1757 31.1381 24.3668 31.0869 24.4531 30.9374C24.5394 30.788 24.4882 30.5969 24.3387 30.5106L24.1825 30.7812L24.0262 31.0518ZM23.4347 29.9886C23.2852 29.9023 23.0941 29.9535 23.0078 30.103C22.9215 30.2524 22.9727 30.4436 23.1222 30.5299L23.2785 30.2592L23.4347 29.9886ZM21.3142 29.486C21.4636 29.5723 21.6548 29.5211 21.7411 29.3716C21.8274 29.2221 21.7761 29.031 21.6267 28.9447L21.4704 29.2153L21.3142 29.486ZM20.5475 28.3635C20.3763 28.3415 20.2198 28.4625 20.1978 28.6337C20.1759 28.8049 20.2969 28.9614 20.4681 28.9834L20.5078 28.6734L20.5475 28.3635ZM20.4843 28.9846C20.6568 28.989 20.8003 28.8527 20.8047 28.6802C20.8091 28.5077 20.6728 28.3642 20.5003 28.3598L20.4923 28.6722L20.4843 28.9846ZM20.3171 28.3922C20.1564 28.4553 20.0774 28.6367 20.1405 28.7973C20.2036 28.958 20.385 29.037 20.5457 28.9739L20.4314 28.683L20.3171 28.3922ZM20.6321 28.8889C20.6992 28.7299 20.6247 28.5466 20.4656 28.4795C20.3066 28.4124 20.1233 28.487 20.0562 28.646L20.3442 28.7675L20.6321 28.8889ZM20.332 28.8282H20.0195V29.0067H20.332H20.6445V28.8282H20.332ZM20.332 29.0514H20.0195V29.2299H20.332H20.6445V29.0514H20.332ZM20.332 29.5871H20.0195V29.7657H20.332H20.6445V29.5871H20.332ZM20.332 29.7657V29.4532H18.617V29.7657V30.0782H20.332V29.7657ZM18.1882 29.7657V29.4532H16.4732V29.7657V30.0782H18.1882V29.7657ZM13.0432 29.7657V29.4532H11.3281V29.7657V30.0782H13.0432V29.7657ZM11.3281 29.7657V29.4532C11.2645 29.4532 11.2026 29.4628 11.144 29.4808L11.236 29.7795L11.328 30.0781L11.3281 30.0782V29.7657ZM11.2139 29.7872L11.0997 29.4963C11.0409 29.5194 10.9866 29.5511 10.9383 29.5896L11.1333 29.8338L11.3283 30.078L11.3282 30.078L11.2139 29.7872ZM11.0294 29.986L10.7308 29.894C10.7127 29.9526 10.7031 30.0145 10.7031 30.0782H11.0156H11.3281L11.3281 30.078L11.0294 29.986ZM11.0156 30.0782H10.7031V30.6734H11.0156H11.3281V30.0782H11.0156ZM11.0156 30.8222H10.7031V31.4174H11.0156H11.3281V30.8222H11.0156ZM11.0156 32.6079H10.7031V33.2032H11.0156H11.3281V32.6079H11.0156ZM11.0156 33.2032H10.7031C10.7031 33.2668 10.7127 33.3287 10.7308 33.3873L11.0294 33.2953L11.3281 33.2033L11.3281 33.2032H11.0156ZM11.0372 33.3174L10.7463 33.4316C10.7694 33.4904 10.801 33.5447 10.8396 33.593L11.0838 33.398L11.328 33.203L11.328 33.2031L11.0372 33.3174ZM11.236 33.5018L11.144 33.8005C11.2026 33.8185 11.2645 33.8282 11.3281 33.8282V33.5157V33.2032L11.328 33.2032L11.236 33.5018ZM11.3281 33.5157V33.8282H13.0432V33.5157V33.2032H11.3281V33.5157ZM13.4719 33.5157V33.8282H15.1869V33.5157V33.2032H13.4719V33.5157ZM18.617 33.5157V33.8282H20.332V33.5157V33.2032H18.617V33.5157ZM20.332 33.5157H20.0195V33.6667H20.332H20.6445V33.5157H20.332ZM20.332 33.7045H20.0195V33.8555H20.332H20.6445V33.7045H20.332ZM20.332 34.1576H20.0195V34.3086H20.332H20.6445V34.1576H20.332ZM20.332 34.3086H20.0195C20.0195 34.3723 20.0322 34.4339 20.0559 34.4904L20.3441 34.3694L20.6323 34.2485C20.6405 34.2682 20.6445 34.2888 20.6445 34.3086H20.332ZM20.3509 34.3835L20.0765 34.5331C20.1073 34.5895 20.1485 34.6375 20.1963 34.6754L20.3908 34.4309L20.5854 34.1863C20.6008 34.1986 20.6147 34.2146 20.6252 34.2339L20.3509 34.3835ZM20.5077 34.4642L20.5464 34.7743C20.6073 34.7667 20.6671 34.747 20.7224 34.7151L20.5664 34.4444L20.4104 34.1736C20.4277 34.1637 20.4477 34.1568 20.469 34.1541L20.5077 34.4642ZM20.5664 34.4444L20.7227 34.715L21.6267 34.193L21.4704 33.9224L21.3142 33.6518L20.4102 34.1737L20.5664 34.4444ZM21.6964 33.7919L21.8527 34.0626L22.7567 33.5406L22.6004 33.27L22.4442 32.9993L21.5402 33.5213L21.6964 33.7919ZM24.4085 32.2261L24.5647 32.4967L25.4688 31.9748L25.3125 31.7041L25.1562 31.4335L24.2522 31.9554L24.4085 32.2261ZM25.3125 31.7041L25.4688 31.9748C25.5239 31.9429 25.5708 31.9012 25.6079 31.8524L25.3591 31.6633L25.1103 31.4743C25.1232 31.4572 25.1391 31.4434 25.1562 31.4335L25.3125 31.7041ZM25.3679 31.6504L25.6347 31.8131C25.6682 31.7582 25.6891 31.6983 25.698 31.6378L25.3888 31.5922L25.0797 31.5466C25.0826 31.5268 25.0895 31.5067 25.101 31.4878L25.3679 31.6504ZM25.3591 31.4745L25.608 31.2855C25.5709 31.2368 25.5241 31.195 25.469 31.1632L25.3125 31.4336L25.156 31.7041C25.1389 31.6942 25.1231 31.6804 25.1102 31.6634L25.3591 31.4745ZM25.3125 31.4336L25.4688 31.163L24.5647 30.641L24.4085 30.9117L24.2522 31.1823L25.1562 31.7043L25.3125 31.4336ZM24.1825 30.7812L24.3387 30.5106L23.4347 29.9886L23.2785 30.2592L23.1222 30.5299L24.0262 31.0518L24.1825 30.7812ZM21.4704 29.2153L21.6267 28.9447L20.7227 28.4228L20.5664 28.6934L20.4102 28.964L21.3142 29.486L21.4704 29.2153ZM20.5664 28.6934L20.7227 28.4228C20.6677 28.391 20.6082 28.3712 20.5475 28.3635L20.5078 28.6734L20.4681 28.9834C20.447 28.9807 20.4272 28.9738 20.4102 28.964L20.5664 28.6934ZM20.4923 28.6722L20.5003 28.3598C20.4361 28.3582 20.3739 28.3699 20.3171 28.3922L20.4314 28.683L20.5457 28.9739C20.5271 28.9812 20.5063 28.9852 20.4843 28.9846L20.4923 28.6722ZM20.3442 28.7675L20.0562 28.646C20.0324 28.7025 20.0196 28.764 20.0195 28.8276L20.332 28.8282L20.6445 28.8287C20.6445 28.8484 20.6405 28.8691 20.6321 28.8889L20.3442 28.7675Z" fill="black"/>
<path d="M33.0468 9.92188C33.2194 9.92187 33.3593 10.0618 33.3593 10.2344V21.6406C33.3593 21.8132 33.2194 21.9531 33.0468 21.9531H28.1835V22.5088C28.1834 22.7492 27.9231 22.8995 27.7148 22.7793L23.4374 20.3096C23.2292 20.1893 23.2292 19.8888 23.4374 19.7686L27.7148 17.2988C27.9231 17.1786 28.1834 17.3289 28.1835 17.5693V18.2031H29.6093V10.2344C29.6093 10.0618 29.7492 9.92188 29.9218 9.92188H33.0468Z" fill="#E8ACAC"/>
<path d="M33.0468 9.92188V10.2344V10.2344V9.92188ZM33.3593 10.2344H33.6718V10.2344H33.3593ZM33.3593 21.6406H33.6718V21.6406H33.3593ZM33.0468 21.9531V21.6406V21.6406V21.9531ZM28.1835 21.9531V21.6406C28.011 21.6406 27.871 21.7805 27.871 21.9531H28.1835ZM28.1835 22.5088L28.496 22.509V22.5088H28.1835ZM27.7148 22.7793L27.5585 23.0499L27.5586 23.0499L27.7148 22.7793ZM23.4374 20.3096L23.2811 20.5802L23.2812 20.5802L23.4374 20.3096ZM23.4374 19.7686L23.2812 19.4979L23.2811 19.498L23.4374 19.7686ZM27.7148 17.2988L27.5586 17.0282L27.5585 17.0282L27.7148 17.2988ZM28.1835 17.5693H28.496L28.496 17.5691L28.1835 17.5693ZM28.1835 18.2031H27.871C27.871 18.3757 28.011 18.5156 28.1835 18.5156V18.2031ZM29.6093 18.2031V18.5156C29.7819 18.5156 29.9218 18.3757 29.9218 18.2031H29.6093ZM29.6093 10.2344L29.2968 10.2344V10.2344H29.6093ZM29.9218 9.92188V9.60938H29.9218L29.9218 9.92188ZM32.4516 9.60938C32.279 9.60938 32.1391 9.74929 32.1391 9.92188C32.1391 10.0945 32.279 10.2344 32.4516 10.2344V9.92188V9.60938ZM32.3028 10.2344C32.4754 10.2344 32.6153 10.0945 32.6153 9.92188C32.6153 9.74929 32.4754 9.60938 32.3028 9.60938V9.92188V10.2344ZM31.7075 9.60938C31.5349 9.60938 31.395 9.74929 31.395 9.92188C31.395 10.0945 31.5349 10.2344 31.7075 10.2344V9.92188V9.60938ZM30.5171 10.2344C30.6896 10.2344 30.8296 10.0945 30.8296 9.92188C30.8296 9.74929 30.6896 9.60938 30.5171 9.60938V9.92188V10.2344ZM29.7377 9.63703C29.5727 9.68785 29.4802 9.86276 29.531 10.0277C29.5819 10.1926 29.7568 10.2851 29.9217 10.2343L29.8297 9.93568L29.7377 9.63703ZM29.9219 10.2343C30.0825 10.1712 30.1616 9.98979 30.0985 9.82915C30.0354 9.66851 29.854 9.58944 29.6934 9.65254L29.8076 9.9434L29.9219 10.2343ZM29.532 9.74584C29.3971 9.85354 29.3751 10.0502 29.4828 10.185C29.5905 10.3199 29.7871 10.3419 29.922 10.2342L29.727 9.99004L29.532 9.74584ZM29.9218 10.2343C29.9726 10.0693 29.8801 9.89441 29.7151 9.84359C29.5502 9.79277 29.3753 9.88528 29.3245 10.0502L29.6231 10.1422L29.9218 10.2343ZM29.2968 11.7522C29.2968 11.9248 29.4367 12.0647 29.6093 12.0647C29.7819 12.0647 29.9218 11.9248 29.9218 11.7522H29.6093H29.2968ZM29.9218 12.1317C29.9218 11.9591 29.7819 11.8192 29.6093 11.8192C29.4367 11.8192 29.2968 11.9591 29.2968 12.1317H29.6093H29.9218ZM29.2968 13.6496C29.2968 13.8221 29.4367 13.9621 29.6093 13.9621C29.7819 13.9621 29.9218 13.8221 29.9218 13.6496H29.6093H29.2968ZM29.9218 16.6853C29.9218 16.5127 29.7819 16.3728 29.6093 16.3728C29.4367 16.3728 29.2968 16.5127 29.2968 16.6853H29.6093H29.9218ZM29.3377 17.8906C29.1652 17.8906 29.0252 18.0305 29.0252 18.2031C29.0252 18.3757 29.1652 18.5156 29.3377 18.5156V18.2031V17.8906ZM29.2698 18.5156C29.4424 18.5156 29.5823 18.3757 29.5823 18.2031C29.5823 18.0305 29.4424 17.8906 29.2698 17.8906V18.2031V18.5156ZM28.9983 17.8906C28.8257 17.8906 28.6858 18.0305 28.6858 18.2031C28.6858 18.3757 28.8257 18.5156 28.9983 18.5156V18.2031V17.8906ZM28.4551 18.5156C28.6277 18.5156 28.7676 18.3757 28.7676 18.2031C28.7676 18.0305 28.6277 17.8906 28.4551 17.8906V18.2031V18.5156ZM28.496 18.0824C28.496 17.9098 28.3561 17.7699 28.1835 17.7699C28.011 17.7699 27.871 17.9098 27.871 18.0824H28.1835H28.496ZM27.871 18.0522C27.871 18.2248 28.011 18.3647 28.1835 18.3647C28.3561 18.3647 28.496 18.2248 28.496 18.0522H28.1835H27.871ZM28.496 17.9315C28.496 17.7589 28.3561 17.619 28.1835 17.619C28.011 17.619 27.871 17.7589 27.871 17.9315H28.1835H28.496ZM27.871 17.6901C27.871 17.8626 28.011 18.0026 28.1835 18.0026C28.3561 18.0026 28.496 17.8626 28.496 17.6901H28.1835H27.871ZM28.4474 17.3267C28.3806 17.1676 28.1974 17.0928 28.0382 17.1597C27.8791 17.2266 27.8044 17.4098 27.8713 17.5689L28.1594 17.4478L28.4474 17.3267ZM27.8716 17.5696C27.9544 17.721 28.1442 17.7767 28.2957 17.6939C28.4471 17.6112 28.5028 17.4213 28.42 17.2699L28.1458 17.4197L27.8716 17.5696ZM28.26 17.0802C28.1247 16.973 27.9282 16.9957 27.821 17.131C27.7138 17.2662 27.7365 17.4628 27.8717 17.57L28.0659 17.3251L28.26 17.0802ZM27.8714 17.569C28.0426 17.5473 28.1638 17.3909 28.1421 17.2196C28.1204 17.0484 27.964 16.9272 27.7928 16.9489L27.8321 17.2589L27.8714 17.569ZM26.7438 17.4986C26.5943 17.5849 26.5431 17.776 26.6294 17.9255C26.7157 18.075 26.9069 18.1262 27.0563 18.0399L26.9001 17.7693L26.7438 17.4986ZM26.8526 18.1575C27.0021 18.0712 27.0533 17.8801 26.967 17.7306C26.8807 17.5811 26.6896 17.5299 26.5401 17.6162L26.6964 17.8869L26.8526 18.1575ZM25.7254 18.0867C25.5759 18.173 25.5247 18.3641 25.611 18.5135C25.6973 18.663 25.8884 18.7142 26.0379 18.6279L25.8816 18.3573L25.7254 18.0867ZM24.4084 19.5688C24.5579 19.4825 24.6091 19.2913 24.5228 19.1419C24.4365 18.9924 24.2454 18.9412 24.0959 19.0275L24.2522 19.2981L24.4084 19.5688ZM23.0954 19.6611C22.991 19.7985 23.0178 19.9946 23.1552 20.099C23.2926 20.2034 23.4886 20.1767 23.5931 20.0393L23.3442 19.8502L23.0954 19.6611ZM23.5935 20.0387C23.6833 19.8913 23.6367 19.699 23.4894 19.6092C23.3421 19.5193 23.1498 19.5659 23.0599 19.7132L23.3267 19.8759L23.5935 20.0387ZM22.9755 19.9467C22.9503 20.1174 23.0682 20.2763 23.2389 20.3016C23.4096 20.3269 23.5685 20.209 23.5938 20.0382L23.2847 19.9925L22.9755 19.9467ZM23.5931 20.0388C23.4886 19.9014 23.2926 19.8747 23.1552 19.9791C23.0178 20.0836 22.991 20.2796 23.0954 20.417L23.3442 20.2279L23.5931 20.0388ZM24.0959 21.0506C24.2454 21.1369 24.4365 21.0857 24.5228 20.9363C24.6091 20.7868 24.5579 20.5957 24.4084 20.5094L24.2522 20.78L24.0959 21.0506ZM24.6121 20.627C24.4627 20.5407 24.2715 20.5919 24.1852 20.7413C24.0989 20.8908 24.1501 21.0819 24.2996 21.1682L24.4559 20.8976L24.6121 20.627ZM25.1143 21.6387C25.2638 21.725 25.4549 21.6737 25.5412 21.5243C25.6275 21.3748 25.5763 21.1837 25.4269 21.0974L25.2706 21.368L25.1143 21.6387ZM27.0563 22.0382C26.9069 21.9519 26.7157 22.0031 26.6294 22.1526C26.5431 22.3021 26.5943 22.4932 26.7438 22.5795L26.9001 22.3089L27.0563 22.0382ZM27.7928 23.1292C27.964 23.1509 28.1204 23.0297 28.1421 22.8585C28.1638 22.6873 28.0426 22.5309 27.8714 22.5092L27.8321 22.8192L27.7928 23.1292ZM27.8707 22.5091C27.6981 22.505 27.5549 22.6415 27.5508 22.8141C27.5467 22.9866 27.6832 23.1298 27.8557 23.1339L27.8632 22.8215L27.8707 22.5091ZM28.1001 23.0902C28.2606 23.0267 28.3392 22.8452 28.2757 22.6847C28.2123 22.5242 28.0307 22.4455 27.8702 22.509L27.9851 22.7996L28.1001 23.0902ZM27.8713 22.5092C27.8044 22.6683 27.8791 22.8515 28.0382 22.9184C28.1974 22.9853 28.3805 22.9105 28.4474 22.7514L28.1594 22.6303L27.8713 22.5092ZM28.496 22.4029C28.496 22.2304 28.3561 22.0904 28.1835 22.0904C28.011 22.0904 27.871 22.2304 27.871 22.4029H28.1835H28.496ZM27.871 22.3765C27.871 22.5491 28.011 22.689 28.1835 22.689C28.3561 22.689 28.496 22.5491 28.496 22.3765H28.1835H27.871ZM28.496 22.2706C28.496 22.0981 28.3561 21.9581 28.1835 21.9581C28.011 21.9581 27.871 22.0981 27.871 22.2706H28.1835H28.496ZM27.871 22.059C27.871 22.2316 28.011 22.3715 28.1835 22.3715C28.3561 22.3715 28.496 22.2316 28.496 22.059H28.1835H27.871ZM29.1099 22.2656C29.2825 22.2656 29.4224 22.1257 29.4224 21.9531C29.4224 21.7805 29.2825 21.6406 29.1099 21.6406V21.9531V22.2656ZM29.3415 21.6406C29.1689 21.6406 29.029 21.7805 29.029 21.9531C29.029 22.1257 29.1689 22.2656 29.3415 22.2656V21.9531V21.6406ZM30.2678 22.2656C30.4404 22.2656 30.5803 22.1257 30.5803 21.9531C30.5803 21.7805 30.4404 21.6406 30.2678 21.6406V21.9531V22.2656ZM32.1205 21.6406C31.9479 21.6406 31.808 21.7805 31.808 21.9531C31.808 22.1257 31.9479 22.2656 32.1205 22.2656V21.9531V21.6406ZM33.231 22.238C33.3959 22.1871 33.4884 22.0122 33.4376 21.8473C33.3868 21.6824 33.2119 21.5899 33.0469 21.6407L33.139 21.9393L33.231 22.238ZM33.0468 21.6407C32.8861 21.7038 32.8071 21.8852 32.8702 22.0459C32.9333 22.2065 33.1146 22.2856 33.2753 22.2225L33.161 21.9316L33.0468 21.6407ZM33.4367 22.1292C33.5715 22.0215 33.5936 21.8248 33.4859 21.69C33.3782 21.5551 33.1815 21.5331 33.0467 21.6408L33.2417 21.885L33.4367 22.1292ZM33.0469 21.6407C32.9961 21.8057 33.0886 21.9806 33.2535 22.0314C33.4184 22.0822 33.5933 21.9897 33.6442 21.8248L33.3455 21.7328L33.0469 21.6407ZM33.6718 19.468C33.6718 19.2954 33.5319 19.1555 33.3593 19.1555C33.1867 19.1555 33.0468 19.2954 33.0468 19.468H33.3593H33.6718ZM33.0468 18.9249C33.0468 19.0974 33.1867 19.2374 33.3593 19.2374C33.5319 19.2374 33.6718 19.0974 33.6718 18.9249H33.3593H33.0468ZM33.6718 16.7522C33.6718 16.5796 33.5319 16.4397 33.3593 16.4397C33.1867 16.4397 33.0468 16.5796 33.0468 16.7522H33.3593H33.6718ZM33.0468 12.407C33.0468 12.5796 33.1867 12.7195 33.3593 12.7195C33.5319 12.7195 33.6718 12.5796 33.6718 12.407H33.3593H33.0468ZM33.6442 10.0502C33.5933 9.88528 33.4184 9.79277 33.2535 9.84359C33.0886 9.89441 32.9961 10.0693 33.0469 10.2343L33.3455 10.1422L33.6442 10.0502ZM33.0469 10.2344C33.11 10.3951 33.2914 10.4741 33.452 10.411C33.6127 10.3479 33.6918 10.1666 33.6287 10.0059L33.3378 10.1202L33.0469 10.2344ZM33.5354 9.84453C33.4277 9.70967 33.231 9.68764 33.0962 9.79533C32.9613 9.90302 32.9393 10.0997 33.047 10.2345L33.2912 10.0395L33.5354 9.84453ZM33.0469 10.2343C33.2119 10.2851 33.3868 10.1926 33.4376 10.0277C33.4884 9.86276 33.3959 9.68785 33.231 9.63703L33.139 9.93568L33.0469 10.2343ZM33.0468 9.92188V9.60938H32.4516V9.92188V10.2344H33.0468V9.92188ZM32.3028 9.92188V9.60938H31.7075V9.92188V10.2344H32.3028V9.92188ZM30.5171 9.92188V9.60938H29.9218V9.92188V10.2344H30.5171V9.92188ZM29.9218 9.92188L29.9218 9.60938C29.8582 9.60938 29.7963 9.61898 29.7377 9.63703L29.8297 9.93568L29.9217 10.2343L29.9218 10.2344V9.92188ZM29.8076 9.9434L29.6934 9.65254C29.6345 9.67564 29.5803 9.70729 29.532 9.74584L29.727 9.99004L29.922 10.2342L29.9219 10.2343L29.8076 9.9434ZM29.6231 10.1422L29.3245 10.0502C29.3064 10.1088 29.2968 10.1708 29.2968 10.2344L29.6093 10.2344L29.9218 10.2344L29.9218 10.2343L29.6231 10.1422ZM29.6093 10.2344H29.2968V11.7522H29.6093H29.9218V10.2344H29.6093ZM29.6093 12.1317H29.2968V13.6496H29.6093H29.9218V12.1317H29.6093ZM29.6093 16.6853H29.2968V18.2031H29.6093H29.9218V16.6853H29.6093ZM29.6093 18.2031V17.8906H29.3377V18.2031V18.5156H29.6093V18.2031ZM29.2698 18.2031V17.8906H28.9983V18.2031V18.5156H29.2698V18.2031ZM28.4551 18.2031V17.8906H28.1835V18.2031V18.5156H28.4551V18.2031ZM28.1835 18.2031H28.496V18.0824H28.1835H27.871V18.2031H28.1835ZM28.1835 18.0522H28.496V17.9315H28.1835H27.871V18.0522H28.1835ZM28.1835 17.6901H28.496V17.5693H28.1835H27.871V17.6901H28.1835ZM28.1835 17.5693L28.496 17.5691C28.496 17.4836 28.4789 17.4016 28.4474 17.3267L28.1594 17.4478L27.8713 17.5689L27.871 17.5695L28.1835 17.5693ZM28.1458 17.4197L28.42 17.2699C28.3791 17.1949 28.324 17.131 28.26 17.0802L28.0659 17.3251L27.8717 17.57L27.8716 17.5696L28.1458 17.4197ZM27.8321 17.2589L27.7928 16.9489C27.7122 16.9591 27.6327 16.9854 27.5586 17.0282L27.7148 17.2988L27.871 17.5695L27.8714 17.569L27.8321 17.2589ZM27.7148 17.2988L27.5585 17.0282L26.7438 17.4986L26.9001 17.7693L27.0563 18.0399L27.871 17.5695L27.7148 17.2988ZM26.6964 17.8869L26.5401 17.6162L25.7254 18.0867L25.8816 18.3573L26.0379 18.6279L26.8526 18.1575L26.6964 17.8869ZM24.2522 19.2981L24.0959 19.0275L23.2812 19.4979L23.4374 19.7686L23.5937 20.0392L24.4084 19.5688L24.2522 19.2981ZM23.4374 19.7686L23.2811 19.498C23.2071 19.5407 23.1446 19.5964 23.0954 19.6611L23.3442 19.8502L23.5931 20.0393L23.5937 20.0392L23.4374 19.7686ZM23.3267 19.8759L23.0599 19.7132C23.0154 19.7861 22.9875 19.8659 22.9755 19.9467L23.2847 19.9925L23.5938 20.0382L23.5935 20.0387L23.3267 19.8759ZM23.3442 20.2279L23.0954 20.417C23.1446 20.4817 23.2071 20.5374 23.2811 20.5802L23.4374 20.3096L23.5937 20.039L23.5931 20.0388L23.3442 20.2279ZM23.4374 20.3096L23.2812 20.5802L24.0959 21.0506L24.2522 20.78L24.4084 20.5094L23.5937 20.0389L23.4374 20.3096ZM24.4559 20.8976L24.2996 21.1682L25.1143 21.6387L25.2706 21.368L25.4269 21.0974L24.6121 20.627L24.4559 20.8976ZM26.9001 22.3089L26.7438 22.5795L27.5585 23.0499L27.7148 22.7793L27.871 22.5087L27.0563 22.0382L26.9001 22.3089ZM27.7148 22.7793L27.5586 23.0499C27.6327 23.0927 27.7122 23.119 27.7928 23.1292L27.8321 22.8192L27.8714 22.5092L27.871 22.5086L27.7148 22.7793ZM27.8632 22.8215L27.8557 23.1339C27.9411 23.136 28.0241 23.1203 28.1001 23.0902L27.9851 22.7996L27.8702 22.509L27.8707 22.5091L27.8632 22.8215ZM28.1594 22.6303L28.4474 22.7514C28.4789 22.6765 28.496 22.5946 28.496 22.509L28.1835 22.5088L27.871 22.5086L27.8713 22.5092L28.1594 22.6303ZM28.1835 22.5088H28.496V22.4029H28.1835H27.871V22.5088H28.1835ZM28.1835 22.3765H28.496V22.2706H28.1835H27.871V22.3765H28.1835ZM28.1835 22.059H28.496V21.9531H28.1835H27.871V22.059H28.1835ZM28.1835 21.9531V22.2656H29.1099V21.9531V21.6406H28.1835V21.9531ZM29.3415 21.9531V22.2656H30.2678V21.9531V21.6406H29.3415V21.9531ZM32.1205 21.9531V22.2656H33.0468V21.9531V21.6406H32.1205V21.9531ZM33.0468 21.9531V22.2656C33.1104 22.2656 33.1724 22.256 33.231 22.238L33.139 21.9393L33.0469 21.6407L33.0468 21.6406V21.9531ZM33.161 21.9316L33.2753 22.2225C33.3341 22.1994 33.3884 22.1677 33.4367 22.1292L33.2417 21.885L33.0467 21.6408L33.0468 21.6407L33.161 21.9316ZM33.3455 21.7328L33.6442 21.8248C33.6622 21.7662 33.6718 21.7042 33.6718 21.6406H33.3593H33.0468L33.0469 21.6407L33.3455 21.7328ZM33.3593 21.6406H33.6718V19.468H33.3593H33.0468V21.6406H33.3593ZM33.3593 18.9249H33.6718V16.7522H33.3593H33.0468V18.9249H33.3593ZM33.3593 12.407H33.6718V10.2344H33.3593H33.0468V12.407H33.3593ZM33.3593 10.2344H33.6718C33.6718 10.1708 33.6622 10.1088 33.6442 10.0502L33.3455 10.1422L33.0469 10.2343L33.0468 10.2344H33.3593ZM33.3378 10.1202L33.6287 10.0059C33.6056 9.9471 33.5739 9.89281 33.5354 9.84453L33.2912 10.0395L33.047 10.2345L33.0469 10.2344L33.3378 10.1202ZM33.139 9.93568L33.231 9.63703C33.1724 9.61898 33.1104 9.60938 33.0468 9.60938V9.92188V10.2344L33.0469 10.2343L33.139 9.93568Z" fill="black"/>
<path d="M20.2344 18.5157C20.2344 18.3431 20.0945 18.2032 19.9219 18.2032L7.1875 18.2032C7.01491 18.2032 6.875 18.3431 6.875 18.5157L6.875 22.3634L6.3291 22.3634C6.0886 22.3634 5.93751 22.6238 6.05762 22.8321L8.52734 27.1095C8.64759 27.3177 8.94801 27.3176 9.06836 27.1095L11.5381 22.8321C11.6584 22.6238 11.5081 22.3634 11.2676 22.3634L10.625 22.3634L10.625 21.9532L19.9219 21.9532C20.0945 21.9532 20.2344 21.8133 20.2344 21.6407L20.2344 18.5157Z" fill="#E8ACAC"/>
<path d="M20.2344 18.5157L19.9219 18.5157V18.5157L20.2344 18.5157ZM19.9219 18.2032L19.9219 17.8907V17.8907L19.9219 18.2032ZM7.1875 18.2032L7.1875 17.8907V17.8907L7.1875 18.2032ZM6.875 18.5157L6.5625 18.5157L6.5625 18.5157L6.875 18.5157ZM6.875 22.3634L7.1875 22.3634C7.1875 22.536 7.04759 22.6759 6.875 22.6759L6.875 22.3634ZM6.3291 22.3634L6.3291 22.0509V22.0509L6.3291 22.3634ZM6.05762 22.8321L5.78699 22.9884L5.78689 22.9882L6.05762 22.8321ZM8.52734 27.1095L8.79797 26.9532L8.79798 26.9532L8.52734 27.1095ZM9.06836 27.1095L9.33899 27.2657L9.3389 27.2659L9.06836 27.1095ZM11.5381 22.8321L11.8087 22.9884L11.8087 22.9884L11.5381 22.8321ZM11.2676 22.3634L11.2676 22.6759V22.6759L11.2676 22.3634ZM10.625 22.3634L10.625 22.6759C10.5421 22.6759 10.4626 22.6429 10.404 22.5843C10.3454 22.5257 10.3125 22.4462 10.3125 22.3634L10.625 22.3634ZM10.625 21.9532L10.3125 21.9532C10.3125 21.7806 10.4524 21.6407 10.625 21.6407L10.625 21.9532ZM19.9219 21.9532L19.9219 22.2657L19.9219 22.2657L19.9219 21.9532ZM20.2344 21.6407L20.5469 21.6407V21.6407L20.2344 21.6407ZM20.5469 18.8133C20.5469 18.9859 20.407 19.1258 20.2344 19.1258C20.0618 19.1258 19.9219 18.9859 19.9219 18.8133L20.2344 18.8133L20.5469 18.8133ZM19.9219 18.9621C19.9219 18.7896 20.0618 18.6496 20.2344 18.6496C20.407 18.6496 20.5469 18.7896 20.5469 18.9621L20.2344 18.9621L19.9219 18.9621ZM20.5469 20.1526C20.5469 20.3252 20.407 20.4651 20.2344 20.4651C20.0618 20.4651 19.9219 20.3252 19.9219 20.1526L20.2344 20.1526L20.5469 20.1526ZM19.9219 21.3431C19.9219 21.1705 20.0618 21.0306 20.2344 21.0306C20.407 21.0306 20.5469 21.1705 20.5469 21.3431L20.2344 21.3431L19.9219 21.3431ZM20.54 21.7335C20.5145 21.9042 20.3554 22.0219 20.1847 21.9964C20.014 21.9709 19.8963 21.8118 19.9219 21.6411L20.2309 21.6873L20.54 21.7335ZM19.9219 21.641C19.9601 21.4727 20.1276 21.3673 20.2959 21.4056C20.4642 21.4438 20.5696 21.6113 20.5313 21.7796L20.2266 21.7103L19.9219 21.641ZM20.347 22.0988C20.2205 22.2162 20.0228 22.2089 19.9054 22.0824C19.788 21.9559 19.7953 21.7582 19.9218 21.6408L20.1344 21.8698L20.347 22.0988ZM19.9223 21.6407C20.093 21.6152 20.252 21.7329 20.2775 21.9036C20.303 22.0743 20.1854 22.2333 20.0147 22.2588L19.9685 21.9498L19.9223 21.6407ZM19.0365 22.2657C18.8639 22.2657 18.724 22.1258 18.724 21.9532C18.724 21.7806 18.8639 21.6407 19.0365 21.6407L19.0365 21.9532L19.0365 22.2657ZM18.5938 21.6407C18.7663 21.6407 18.9063 21.7806 18.9063 21.9532C18.9063 22.1258 18.7663 22.2657 18.5938 22.2657L18.5938 21.9532L18.5938 21.6407ZM15.0521 22.2657C14.8795 22.2657 14.7396 22.1258 14.7396 21.9532C14.7396 21.7806 14.8795 21.6407 15.0521 21.6407L15.0521 21.9532L15.0521 22.2657ZM11.5104 21.6407C11.683 21.6407 11.8229 21.7806 11.8229 21.9532C11.8229 22.1258 11.683 22.2657 11.5104 22.2657L11.5104 21.9532L11.5104 21.6407ZM10.9375 21.9923C10.9375 22.1649 10.7976 22.3048 10.625 22.3048C10.4524 22.3048 10.3125 22.1649 10.3125 21.9923L10.625 21.9923L10.9375 21.9923ZM10.3125 22.0118C10.3125 21.8392 10.4524 21.6993 10.625 21.6993C10.7976 21.6993 10.9375 21.8392 10.9375 22.0118L10.625 22.0118L10.3125 22.0118ZM10.9375 22.1681C10.9375 22.3406 10.7976 22.4806 10.625 22.4806C10.4524 22.4806 10.3125 22.3406 10.3125 22.1681L10.625 22.1681L10.9375 22.1681ZM10.3125 22.3243C10.3125 22.1517 10.4524 22.0118 10.625 22.0118C10.7976 22.0118 10.9375 22.1517 10.9375 22.3243L10.625 22.3243L10.3125 22.3243ZM10.6862 22.0509C10.8588 22.0509 10.9987 22.1908 10.9987 22.3634C10.9987 22.536 10.8588 22.6759 10.6862 22.6759L10.6862 22.3634L10.6862 22.0509ZM10.7168 22.6759C10.5442 22.6759 10.4043 22.536 10.4043 22.3634C10.4043 22.1908 10.5442 22.0509 10.7168 22.0509L10.7168 22.3634L10.7168 22.6759ZM10.9616 22.0509C11.1342 22.0509 11.2741 22.1908 11.2741 22.3634C11.2741 22.536 11.1342 22.6759 10.9616 22.6759L10.9616 22.3634L10.9616 22.0509ZM11.2064 22.6759C11.0338 22.6759 10.8939 22.536 10.8939 22.3634C10.8939 22.1908 11.0338 22.0509 11.2064 22.0509L11.2064 22.3634L11.2064 22.6759ZM11.39 22.0627C11.5593 22.0961 11.6696 22.2604 11.6362 22.4297C11.6029 22.5991 11.4386 22.7093 11.2692 22.676L11.3296 22.3693L11.39 22.0627ZM11.2689 22.6759C11.1037 22.6256 11.0106 22.451 11.0609 22.2859C11.1111 22.1208 11.2857 22.0277 11.4508 22.0779L11.3598 22.3769L11.2689 22.6759ZM11.8236 22.3906C11.9024 22.5441 11.8419 22.7325 11.6884 22.8113C11.5348 22.8902 11.3465 22.8296 11.2676 22.6761L11.5456 22.5333L11.8236 22.3906ZM11.2682 22.6744C11.324 22.5111 11.5017 22.4239 11.665 22.4797C11.8283 22.5355 11.9154 22.7132 11.8596 22.8765L11.5639 22.7754L11.2682 22.6744ZM11.5735 23.3957C11.4872 23.5452 11.2961 23.5964 11.1466 23.5101C10.9972 23.4238 10.9459 23.2327 11.0322 23.0832L11.3029 23.2395L11.5735 23.3957ZM10.9146 23.2869C11.0009 23.1374 11.1921 23.0862 11.3415 23.1725C11.491 23.2588 11.5422 23.45 11.4559 23.5994L11.1853 23.4432L10.9146 23.2869ZM10.515 25.2289C10.4287 25.3784 10.2376 25.4296 10.0882 25.3433C9.9387 25.257 9.88749 25.0658 9.97379 24.9164L10.2444 25.0726L10.515 25.2289ZM9.03294 26.5458C9.11924 26.3964 9.31037 26.3452 9.45983 26.4315C9.60929 26.5178 9.6605 26.7089 9.5742 26.8584L9.30357 26.7021L9.03294 26.5458ZM9.26743 27.3658C9.15384 27.4958 8.95642 27.509 8.82648 27.3954C8.69655 27.2818 8.6833 27.0844 8.79689 26.9545L9.03216 27.1601L9.26743 27.3658ZM8.79713 26.9542C8.92323 26.8364 9.12098 26.8431 9.23882 26.9692C9.35666 27.0953 9.34996 27.293 9.22386 27.4109L9.0105 27.1825L8.79713 26.9542ZM8.76704 27.5774C8.59465 27.569 8.46172 27.4224 8.47012 27.25C8.47853 27.0776 8.62508 26.9447 8.79747 26.9531L8.78225 27.2652L8.76704 27.5774ZM8.79888 26.9546C8.91241 27.0846 8.89907 27.282 8.76908 27.3955C8.6391 27.5091 8.44168 27.4957 8.32815 27.3657L8.56351 27.1602L8.79888 26.9546ZM8.0215 26.8584C7.9352 26.7089 7.98641 26.5178 8.13587 26.4315C8.28534 26.3452 8.47646 26.3964 8.56276 26.5458L8.29213 26.7021L8.0215 26.8584ZM8.44515 26.3422C8.53145 26.4916 8.48025 26.6827 8.33078 26.769C8.18132 26.8553 7.9902 26.8041 7.9039 26.6547L8.17453 26.4984L8.44515 26.3422ZM6.96305 25.0252C6.87675 24.8757 6.92795 24.6846 7.07742 24.5983C7.22688 24.512 7.41801 24.5632 7.5043 24.7127L7.23368 24.8689L6.96305 25.0252ZM6.56346 23.0832C6.64976 23.2327 6.59855 23.4238 6.44909 23.5101C6.29963 23.5964 6.1085 23.5452 6.0222 23.3957L6.29283 23.2395L6.56346 23.0832ZM5.73598 22.876C5.68039 22.7126 5.76779 22.5351 5.93118 22.4795C6.09457 22.4239 6.27209 22.5113 6.32768 22.6747L6.03183 22.7754L5.73598 22.876ZM6.3278 22.6752C6.36657 22.8433 6.26167 23.0111 6.09349 23.0499C5.92532 23.0886 5.75755 22.9837 5.71877 22.8156L6.02328 22.7454L6.3278 22.6752ZM5.80399 22.3364C5.89776 22.1916 6.09123 22.1501 6.23613 22.2439C6.38102 22.3376 6.42247 22.5311 6.3287 22.676L6.06634 22.5062L5.80399 22.3364ZM6.32744 22.676C6.15811 22.7093 5.9938 22.5991 5.96045 22.4297C5.92709 22.2604 6.03733 22.0961 6.20667 22.0627L6.26706 22.3694L6.32744 22.676ZM6.38109 22.0509C6.55368 22.0509 6.69359 22.1908 6.69359 22.3634C6.69359 22.536 6.55368 22.6759 6.38109 22.6759L6.38109 22.3634L6.38109 22.0509ZM6.40709 22.6759C6.2345 22.6759 6.09459 22.536 6.09459 22.3634C6.09459 22.1908 6.2345 22.0509 6.40709 22.0509L6.40709 22.3634L6.40709 22.6759ZM6.61505 22.0509C6.78764 22.0509 6.92755 22.1908 6.92755 22.3634C6.92755 22.536 6.78764 22.6759 6.61505 22.6759L6.61505 22.3634L6.61505 22.0509ZM6.82301 22.6759C6.65042 22.6759 6.51051 22.536 6.51051 22.3634C6.51051 22.1908 6.65042 22.0509 6.82301 22.0509L6.82301 22.3634L6.82301 22.6759ZM6.5625 21.9969C6.5625 21.8243 6.70241 21.6844 6.875 21.6844C7.04759 21.6844 7.1875 21.8243 7.1875 21.9969L6.875 21.9969L6.5625 21.9969ZM7.1875 21.8137C7.1875 21.9863 7.04759 22.1262 6.875 22.1262C6.70241 22.1262 6.5625 21.9863 6.5625 21.8137L6.875 21.8137L7.1875 21.8137ZM6.5625 20.3479C6.5625 20.1753 6.70241 20.0354 6.875 20.0354C7.04759 20.0354 7.1875 20.1753 7.1875 20.3479L6.875 20.3479L6.5625 20.3479ZM7.1875 18.8822C7.1875 19.0547 7.04759 19.1947 6.875 19.1947C6.70241 19.1947 6.5625 19.0547 6.5625 18.8822L6.875 18.8822L7.1875 18.8822ZM6.56938 18.4229C6.5949 18.2522 6.75396 18.1345 6.92465 18.1601C7.09534 18.1856 7.21303 18.3446 7.18752 18.5153L6.87845 18.4691L6.56938 18.4229ZM7.1875 18.5154C7.14924 18.6837 6.98179 18.7891 6.81349 18.7509C6.6452 18.7126 6.53979 18.5452 6.57805 18.3769L6.88277 18.4461L7.1875 18.5154ZM6.76234 18.0576C6.88883 17.9402 7.08656 17.9475 7.20398 18.074C7.3214 18.2005 7.31404 18.3982 7.18755 18.5157L6.97495 18.2866L6.76234 18.0576ZM7.18711 18.5157C7.01642 18.5412 6.85736 18.4236 6.83184 18.2529C6.80633 18.0822 6.92402 17.9231 7.09471 17.8976L7.14091 18.2067L7.18711 18.5157ZM8.4003 17.8907C8.57289 17.8907 8.7128 18.0306 8.7128 18.2032C8.7128 18.3758 8.57289 18.5157 8.4003 18.5157L8.4003 18.2032L8.4003 17.8907ZM9.0067 18.5157C8.83411 18.5157 8.6942 18.3758 8.6942 18.2032C8.6942 18.0306 8.83411 17.8907 9.0067 17.8907L9.0067 18.2032L9.0067 18.5157ZM13.8579 17.8907C14.0305 17.8907 14.1704 18.0306 14.1704 18.2032C14.1704 18.3758 14.0305 18.5157 13.8579 18.5157L13.8579 18.2032L13.8579 17.8907ZM18.7091 18.5157C18.5365 18.5157 18.3966 18.3758 18.3966 18.2032C18.3966 18.0306 18.5365 17.8907 18.7091 17.8907L18.7091 18.2032L18.7091 18.5157ZM20.2344 18.5157L20.5469 18.5157L20.5469 18.8133L20.2344 18.8133L19.9219 18.8133L19.9219 18.5157L20.2344 18.5157ZM20.2344 18.9621L20.5469 18.9621L20.5469 20.1526L20.2344 20.1526L19.9219 20.1526L19.9219 18.9621L20.2344 18.9621ZM20.2344 21.3431L20.5469 21.3431L20.5469 21.6407L20.2344 21.6407L19.9219 21.6407L19.9219 21.3431L20.2344 21.3431ZM20.2344 21.6407L20.5469 21.6407C20.5469 21.6721 20.5445 21.7031 20.54 21.7335L20.2309 21.6873L19.9219 21.6411L19.9219 21.6407L20.2344 21.6407ZM20.2266 21.7103L20.5313 21.7796C20.5028 21.9048 20.4371 22.0152 20.347 22.0988L20.1344 21.8698L19.9218 21.6408L19.9219 21.641L20.2266 21.7103ZM19.9685 21.9498L20.0147 22.2588C19.9842 22.2634 19.9532 22.2657 19.9219 22.2657L19.9219 21.9532L19.9219 21.6407L19.9223 21.6407L19.9685 21.9498ZM19.9219 21.9532L19.9219 22.2657L19.0365 22.2657L19.0365 21.9532L19.0365 21.6407L19.9219 21.6407L19.9219 21.9532ZM18.5938 21.9532L18.5938 22.2657L15.0521 22.2657L15.0521 21.9532L15.0521 21.6407L18.5938 21.6407L18.5938 21.9532ZM11.5104 21.9532L11.5104 22.2657L10.625 22.2657L10.625 21.9532L10.625 21.6407L11.5104 21.6407L11.5104 21.9532ZM10.625 21.9532L10.9375 21.9532L10.9375 21.9923L10.625 21.9923L10.3125 21.9923L10.3125 21.9532L10.625 21.9532ZM10.625 22.0118L10.9375 22.0118L10.9375 22.1681L10.625 22.1681L10.3125 22.1681L10.3125 22.0118L10.625 22.0118ZM10.625 22.3243L10.9375 22.3243L10.9375 22.3634L10.625 22.3634L10.3125 22.3634L10.3125 22.3243L10.625 22.3243ZM10.625 22.3634L10.625 22.0509L10.6862 22.0509L10.6862 22.3634L10.6862 22.6759L10.625 22.6759L10.625 22.3634ZM10.7168 22.3634L10.7168 22.0509L10.9616 22.0509L10.9616 22.3634L10.9616 22.6759L10.7168 22.6759L10.7168 22.3634ZM11.2064 22.3634L11.2064 22.0509L11.2676 22.0509L11.2676 22.3634L11.2676 22.6759L11.2064 22.6759L11.2064 22.3634ZM11.2676 22.3634L11.2676 22.0509C11.3092 22.0509 11.3501 22.0549 11.39 22.0627L11.3296 22.3693L11.2692 22.676C11.2693 22.676 11.2688 22.6759 11.2676 22.6759L11.2676 22.3634ZM11.3598 22.3769L11.4508 22.0779C11.6194 22.1292 11.7499 22.247 11.8236 22.3906L11.5456 22.5333L11.2676 22.6761C11.2665 22.6738 11.266 22.675 11.2689 22.6759L11.3598 22.3769ZM11.5639 22.7754L11.8596 22.8765C11.8465 22.9149 11.8295 22.9524 11.8087 22.9884L11.5381 22.8321L11.2675 22.6759C11.2681 22.6748 11.2682 22.6743 11.2682 22.6744L11.5639 22.7754ZM11.5381 22.8321L11.8087 22.9884L11.5735 23.3957L11.3029 23.2395L11.0322 23.0832L11.2675 22.6759L11.5381 22.8321ZM11.1853 23.4432L11.4559 23.5994L10.515 25.2289L10.2444 25.0726L9.97379 24.9164L10.9146 23.2869L11.1853 23.4432ZM9.30357 26.7021L9.5742 26.8584L9.33899 27.2657L9.06836 27.1095L8.79773 26.9532L9.03294 26.5458L9.30357 26.7021ZM9.06836 27.1095L9.3389 27.2659C9.3181 27.3019 9.29415 27.3353 9.26743 27.3658L9.03216 27.1601L8.79689 26.9545C8.79682 26.9545 8.79718 26.9542 8.79782 26.953L9.06836 27.1095ZM9.0105 27.1825L9.22386 27.4109C9.09525 27.531 8.92817 27.5852 8.76704 27.5774L8.78225 27.2652L8.79747 26.9531C8.79996 26.9532 8.79921 26.9523 8.79713 26.9542L9.0105 27.1825ZM8.56351 27.1602L8.32815 27.3657C8.30143 27.3351 8.2775 27.3017 8.25671 27.2657L8.52734 27.1095L8.79798 26.9532C8.79861 26.9543 8.79896 26.9547 8.79888 26.9546L8.56351 27.1602ZM8.52734 27.1095L8.25672 27.2657L8.0215 26.8584L8.29213 26.7021L8.56276 26.5458L8.79797 26.9532L8.52734 27.1095ZM8.17453 26.4984L7.9039 26.6547L6.96305 25.0252L7.23368 24.8689L7.5043 24.7127L8.44515 26.3422L8.17453 26.4984ZM6.29283 23.2395L6.0222 23.3957L5.78699 22.9884L6.05762 22.8321L6.32824 22.6759L6.56346 23.0832L6.29283 23.2395ZM6.05762 22.8321L5.78689 22.9882C5.76608 22.9521 5.74909 22.9146 5.73598 22.876L6.03183 22.7754L6.32768 22.6747C6.32762 22.6745 6.32774 22.675 6.32834 22.676L6.05762 22.8321ZM6.02328 22.7454L5.71877 22.8156C5.67915 22.6437 5.71636 22.4719 5.80399 22.3364L6.06634 22.5062L6.3287 22.676C6.32716 22.6784 6.32851 22.6782 6.3278 22.6752L6.02328 22.7454ZM6.26706 22.3694L6.20667 22.0627C6.24654 22.0549 6.28749 22.0509 6.3291 22.0509L6.3291 22.3634L6.3291 22.6759C6.32784 22.6759 6.32735 22.676 6.32744 22.676L6.26706 22.3694ZM6.3291 22.3634L6.3291 22.0509L6.38109 22.0509L6.38109 22.3634L6.38109 22.6759L6.3291 22.6759L6.3291 22.3634ZM6.40709 22.3634L6.40709 22.0509L6.61505 22.0509L6.61505 22.3634L6.61505 22.6759L6.40709 22.6759L6.40709 22.3634ZM6.82301 22.3634L6.82301 22.0509L6.875 22.0509L6.875 22.3634L6.875 22.6759L6.82301 22.6759L6.82301 22.3634ZM6.875 22.3634L6.5625 22.3634L6.5625 21.9969L6.875 21.9969L7.1875 21.9969L7.1875 22.3634L6.875 22.3634ZM6.875 21.8137L6.5625 21.8137L6.5625 20.3479L6.875 20.3479L7.1875 20.3479L7.1875 21.8137L6.875 21.8137ZM6.875 18.8822L6.5625 18.8822L6.5625 18.5157L6.875 18.5157L7.1875 18.5157L7.1875 18.8822L6.875 18.8822ZM6.875 18.5157L6.5625 18.5157C6.5625 18.4844 6.56483 18.4534 6.56938 18.4229L6.87845 18.4691L7.18752 18.5153L7.1875 18.5157L6.875 18.5157ZM6.88277 18.4461L6.57805 18.3769C6.60653 18.2516 6.6723 18.1412 6.76234 18.0576L6.97495 18.2866L7.18755 18.5157L7.1875 18.5154L6.88277 18.4461ZM7.14091 18.2067L7.09471 17.8976C7.12515 17.893 7.15615 17.8907 7.1875 17.8907L7.1875 18.2032L7.1875 18.5157L7.18711 18.5157L7.14091 18.2067ZM7.1875 18.2032L7.1875 17.8907L8.4003 17.8907L8.4003 18.2032L8.4003 18.5157L7.1875 18.5157L7.1875 18.2032ZM9.0067 18.2032L9.0067 17.8907L13.8579 17.8907L13.8579 18.2032L13.8579 18.5157L9.0067 18.5157L9.0067 18.2032ZM18.7091 18.2032L18.7091 17.8907L19.9219 17.8907L19.9219 18.2032L19.9219 18.5157L18.7091 18.5157L18.7091 18.2032ZM19.9219 18.2032L19.9219 17.8907C20.2671 17.8907 20.5469 18.1705 20.5469 18.5157L20.2344 18.5157L19.9219 18.5157V18.5157L19.9219 18.2032Z" fill="black"/>
<circle cx="8.64062" cy="8.64062" r="6.48438" fill="#13AF8B" stroke="black" stroke-width="0.3125"/>
<circle cx="31.4844" cy="8.51562" r="3.90625" fill="#14A080" stroke="black" stroke-width="0.3125"/>
<circle cx="8.51562" cy="31.4844" r="3.90625" fill="#A1A2A2" stroke="black" stroke-width="0.3125"/>
<path d="M33.6924 28.7129C33.7142 28.749 33.7499 28.7746 33.791 28.7842L37.667 29.6816L35.0596 32.6875C35.0318 32.7195 35.0178 32.7616 35.0215 32.8037L35.3662 36.7676L31.7012 35.2158C31.6818 35.2076 31.6613 35.2031 31.6406 35.2031L31.5801 35.2158L27.9141 36.7676L28.2598 32.8037C28.2634 32.7616 28.2494 32.7195 28.2217 32.6875L25.6133 29.6816L29.4902 28.7842C29.5313 28.7746 29.5671 28.749 29.5889 28.7129L31.6406 25.3027L33.6924 28.7129Z" fill="#FFBE4F" stroke="black" stroke-width="0.3125" stroke-linejoin="round"/>
<circle cx="20.0391" cy="20.0391" r="1.40625" fill="#A9CEC6" stroke="black" stroke-width="0.3125"/>
<circle cx="20.0391" cy="20.0391" r="2.92969" stroke="#A9CEC6" stroke-width="0.3125"/>
<path d="M20.0781 11.7188C21.1568 11.7188 22.0312 12.5932 22.0312 13.6719C22.0312 13.9053 21.9882 14.1284 21.9131 14.3359H21.9141L21.9102 14.3428C21.8539 14.4962 21.7803 14.6408 21.6895 14.7734L20.0732 17.9297L18.4619 14.7676C18.3729 14.6366 18.3005 14.4939 18.2451 14.3428L18.2422 14.3359H18.2432C18.1681 14.1284 18.125 13.9053 18.125 13.6719C18.125 12.5932 18.9994 11.7188 20.0781 11.7188Z" fill="#EB1F41"/>
<path d="M20.0781 11.7188L20.0781 11.5625H20.0781V11.7188ZM21.9131 14.3359L21.7662 14.2828L21.6904 14.4922H21.9131V14.3359ZM21.9141 14.3359L22.0497 14.4135L22.1833 14.1797H21.9141V14.3359ZM21.9102 14.3428L21.7745 14.2653L21.768 14.2767L21.7634 14.289L21.9102 14.3428ZM21.6895 14.7734L21.5605 14.6851L21.5549 14.6934L21.5504 14.7022L21.6895 14.7734ZM20.0732 17.9297L19.934 18.0006L20.0729 18.2732L20.2123 18.0009L20.0732 17.9297ZM18.4619 14.7676L18.6011 14.6966L18.5967 14.6879L18.5912 14.6798L18.4619 14.7676ZM18.2451 14.3428L18.3921 14.289L18.3887 14.2812L18.2451 14.3428ZM18.2422 14.3359V14.1797H18.0052L18.0986 14.3975L18.2422 14.3359ZM18.2432 14.3359V14.4922H18.4659L18.3901 14.2828L18.2432 14.3359ZM20.0781 11.7188L20.0781 11.875C21.0705 11.875 21.875 12.6795 21.875 13.6719H22.0312H22.1875C22.1875 12.5069 21.2431 11.5625 20.0781 11.5625L20.0781 11.7188ZM22.0312 13.6719H21.875C21.875 13.8859 21.8356 14.0911 21.7662 14.2828L21.9131 14.3359L22.06 14.3891C22.1408 14.1658 22.1875 13.9247 22.1875 13.6719H22.0312ZM21.9131 14.3359V14.4922H21.9141V14.3359V14.1797H21.9131V14.3359ZM21.9141 14.3359L21.7784 14.2584L21.7745 14.2653L21.9102 14.3428L22.0458 14.4203L22.0497 14.4135L21.9141 14.3359ZM21.9102 14.3428L21.7634 14.289C21.7115 14.4309 21.6437 14.5637 21.5605 14.6851L21.6895 14.7734L21.8184 14.8617C21.9169 14.7178 21.9964 14.5616 22.0569 14.3965L21.9102 14.3428ZM21.6895 14.7734L21.5504 14.7022L19.9342 17.8585L20.0732 17.9297L20.2123 18.0009L21.8285 14.8447L21.6895 14.7734ZM20.0732 17.9297L20.2125 17.8587L18.6011 14.6966L18.4619 14.7676L18.3227 14.8385L19.934 18.0006L20.0732 17.9297ZM18.4619 14.7676L18.5912 14.6798C18.5096 14.5598 18.443 14.4287 18.3918 14.2891L18.2451 14.3428L18.0984 14.3965C18.158 14.5592 18.2362 14.7133 18.3327 14.8554L18.4619 14.7676ZM18.2451 14.3428L18.3887 14.2812L18.3858 14.2744L18.2422 14.3359L18.0986 14.3975L18.1015 14.4043L18.2451 14.3428ZM18.2422 14.3359V14.4922H18.2432V14.3359V14.1797H18.2422V14.3359ZM18.2432 14.3359L18.3901 14.2828C18.3207 14.0911 18.2812 13.8859 18.2812 13.6719H18.125H17.9688C17.9688 13.9247 18.0154 14.1658 18.0962 14.3891L18.2432 14.3359ZM18.125 13.6719H18.2812C18.2812 12.6795 19.0857 11.875 20.0781 11.875V11.7188V11.5625C18.9132 11.5625 17.9688 12.5069 17.9688 13.6719H18.125Z" fill="black"/>
<ellipse cx="20.0781" cy="13.6719" rx="1.24999" ry="1.25" fill="white"/>
</svg>
