<svg width="20" height="20" viewBox="0 0 20 20" fill="none" xmlns="http://www.w3.org/2000/svg">
<circle cx="3.5" cy="3.5" r="3.5" fill="#5AEDCA"/>
<path d="M17.8438 2C17.93 2 17.9999 2.07002 18 2.15625V11.8438C17.9999 11.93 17.93 12 17.8438 12H5V15H7.75V13.7393C7.75032 13.6192 7.88034 13.5444 7.98438 13.6045L12.7656 16.3652C12.8695 16.4255 12.8697 16.5756 12.7656 16.6357L7.98438 19.3955C7.88031 19.4555 7.75023 19.3808 7.75 19.2607V18H2.15625C2.07002 18 2.0001 17.93 2 17.8438V9.15625C2.00002 9.13477 2.00483 9.11432 2.0127 9.0957C2.03642 9.03964 2.09154 9 2.15625 9H15V5H7.74219C7.90814 4.53068 8 4.02616 8 3.5C8 2.97384 7.90814 2.46932 7.74219 2H17.8438Z" fill="#AFB1B3"/>
<path d="M16.8203 14L17.9132 15.816L19.9781 16.2943L18.5887 17.8949L18.7719 20.0065L16.8203 19.1797L14.8687 20.0065L15.0519 17.8949L13.6625 16.2943L15.7274 15.816L16.8203 14Z" fill="#FFD285"/>
</svg>
